<svg xmlns="http://www.w3.org/2000/svg" width="1031.79" height="769.76" viewBox="0 0 1031.79 769.76">
  <g id="buffer" transform="translate(18.21)">
    <path id="Path_1" data-name="Path 1" d="M1028.43,783.34,924.71,603.69a3.3,3.3,0,0,0-5.73,0L815.26,783.34a3.3,3.3,0,0,0,2.86,5h30.94a3.32,3.32,0,0,1,3.31,3.31V830a3.31,3.31,0,0,0,3.3,3.31H896a3.31,3.31,0,0,0,3.31-3.31V811.46a3.3,3.3,0,0,1,3.3-3.3H941a3.31,3.31,0,0,1,3.31,3.3V830a3.31,3.31,0,0,0,3.31,3.31H988a3.31,3.31,0,0,0,3.31-3.31V791.61a3.31,3.31,0,0,1,3.31-3.31h30.94a3.31,3.31,0,0,0,2.87-4.96ZM883.82,803.22a3.3,3.3,0,0,1-2.34,1H866.92a3.31,3.31,0,0,1,0-6.62h14.56a3.31,3.31,0,0,1,2.34,5.65Zm95.28,0a3.3,3.3,0,0,1-2.34,1H962.21a3.31,3.31,0,0,1,0-6.62h14.55a3.31,3.31,0,0,1,2.34,5.65Z" transform="translate(-93.21 -65.12)" fill="#f9a826" opacity="0.1"/>
    <path id="Path_2" data-name="Path 2" d="M387.34,784.92,283.62,605.27a3.31,3.31,0,0,0-5.73,0L188.3,760.44a273.671,273.671,0,0,0,37.53,38.71h14.56a3.31,3.31,0,1,1,0,6.62h-6.16a160.288,160.288,0,0,0,24,14.93v-7.65a3.31,3.31,0,0,1,3.31-3.31H300a3.31,3.31,0,0,1,3.3,3.31v18.52a3.219,3.219,0,0,0,.31,1.39,3.31,3.31,0,0,0,3,1.92h40.37a3.24,3.24,0,0,0,2.63-1.33,3.18,3.18,0,0,0,.67-2V793.2a3.31,3.31,0,0,1,3.31-3.31h30.94a3.31,3.31,0,0,0,2.81-4.97Zm-68.56,15.2a3.3,3.3,0,0,1,2.34-1h14.56a3.31,3.31,0,0,1,0,6.62H321.12a3.31,3.31,0,0,1-2.34-5.65Zm-65.15-66.48a3.31,3.31,0,0,1-3.31-3.31V705.19a3.31,3.31,0,0,1,3.31-3.31h54.26a3.31,3.31,0,0,1,3.3,3.31v25.14a3.31,3.31,0,0,1-3.3,3.31Z" transform="translate(-93.21 -65.12)" fill="#f9a826" opacity="0.1"/>
    <path id="Path_3" data-name="Path 3" d="M797.32,462.2H669V434.44a6.64,6.64,0,0,0-6.64-6.64H624.64V398.23a4.18,4.18,0,0,0-4.18-4.18H571.91a4.18,4.18,0,0,0-4.18,4.18V427.8H523.42a6.64,6.64,0,0,0-6.64,6.64V462.2H394.39a1.35,1.35,0,0,0-1.34,1.35V832.07a1.35,1.35,0,0,0,1.34,1.35h81.34a1.35,1.35,0,0,0,1.35-1.35V782.49a1.36,1.36,0,0,1,1.35-1.35h34.36a1.36,1.36,0,0,1,1.35,1.35v49.58a1.35,1.35,0,0,0,1.34,1.35H676.23a1.36,1.36,0,0,0,1.35-1.35V782.49a1.35,1.35,0,0,1,1.34-1.35h34.36a1.35,1.35,0,0,1,1.35,1.35v49.58a1.36,1.36,0,0,0,1.35,1.35h81.34a1.36,1.36,0,0,0,1.35-1.35V463.55A1.36,1.36,0,0,0,797.32,462.2ZM462.52,763.92a1.34,1.34,0,0,1-1.34,1.34H410.94a1.34,1.34,0,0,1-1.35-1.34V746.76a1.35,1.35,0,0,1,1.35-1.35h50.24a1.35,1.35,0,0,1,1.34,1.35Zm0-44.34a1.34,1.34,0,0,1-1.34,1.35H410.94a1.34,1.34,0,0,1-1.35-1.35V702.43a1.34,1.34,0,0,1,1.35-1.35h50.24a1.34,1.34,0,0,1,1.34,1.35Zm0-44.33a1.35,1.35,0,0,1-1.34,1.35H410.94a1.35,1.35,0,0,1-1.35-1.35V658.09a1.35,1.35,0,0,1,1.35-1.35h50.24a1.35,1.35,0,0,1,1.34,1.35Zm0-44.34a1.34,1.34,0,0,1-1.34,1.35H410.94a1.34,1.34,0,0,1-1.35-1.35V613.76a1.34,1.34,0,0,1,1.35-1.35h50.24a1.34,1.34,0,0,1,1.34,1.35Zm0-44.33a1.35,1.35,0,0,1-1.34,1.35H410.94a1.35,1.35,0,0,1-1.35-1.35V569.42a1.34,1.34,0,0,1,1.35-1.34h50.24a1.34,1.34,0,0,1,1.34,1.34Zm0-44.33a1.34,1.34,0,0,1-1.34,1.34H410.94a1.34,1.34,0,0,1-1.35-1.34V525.09a1.35,1.35,0,0,1,1.35-1.35h50.24a1.35,1.35,0,0,1,1.34,1.35Zm0-44.34a1.34,1.34,0,0,1-1.34,1.35H410.94a1.34,1.34,0,0,1-1.35-1.35V480.76a1.34,1.34,0,0,1,1.35-1.35h50.24a1.34,1.34,0,0,1,1.34,1.35Zm119.11,266a1.34,1.34,0,0,1-1.35,1.34H530a1.35,1.35,0,0,1-1.35-1.34V746.76a1.36,1.36,0,0,1,1.35-1.35h50.24a1.35,1.35,0,0,1,1.35,1.35Zm0-44.34a1.34,1.34,0,0,1-1.35,1.35H530a1.35,1.35,0,0,1-1.35-1.35V702.43a1.35,1.35,0,0,1,1.35-1.35h50.24a1.34,1.34,0,0,1,1.35,1.35Zm0-44.33a1.35,1.35,0,0,1-1.35,1.35H530a1.36,1.36,0,0,1-1.35-1.35V658.09a1.36,1.36,0,0,1,1.35-1.35h50.24a1.35,1.35,0,0,1,1.35,1.35Zm0-44.34a1.34,1.34,0,0,1-1.35,1.35H530a1.35,1.35,0,0,1-1.35-1.35V613.76a1.35,1.35,0,0,1,1.35-1.35h50.24a1.34,1.34,0,0,1,1.35,1.35Zm0-44.33a1.35,1.35,0,0,1-1.35,1.35H530a1.36,1.36,0,0,1-1.35-1.35V569.42a1.35,1.35,0,0,1,1.35-1.34h50.24a1.34,1.34,0,0,1,1.35,1.34Zm0-44.33a1.34,1.34,0,0,1-1.35,1.34H530a1.35,1.35,0,0,1-1.35-1.34V525.09a1.36,1.36,0,0,1,1.35-1.35h50.24a1.35,1.35,0,0,1,1.35,1.35Zm0-44.34a1.34,1.34,0,0,1-1.35,1.35H530a1.35,1.35,0,0,1-1.35-1.35V480.76a1.35,1.35,0,0,1,1.35-1.35h50.24a1.34,1.34,0,0,1,1.35,1.35Zm81.39,266a1.34,1.34,0,0,1-1.35,1.34H611.43a1.35,1.35,0,0,1-1.35-1.34V746.76a1.36,1.36,0,0,1,1.35-1.35h50.24a1.35,1.35,0,0,1,1.35,1.35Zm0-44.34a1.34,1.34,0,0,1-1.35,1.35H611.43a1.35,1.35,0,0,1-1.35-1.35V702.43a1.35,1.35,0,0,1,1.35-1.35h50.24a1.34,1.34,0,0,1,1.35,1.35Zm0-44.33a1.35,1.35,0,0,1-1.35,1.35H611.43a1.36,1.36,0,0,1-1.35-1.35V658.09a1.36,1.36,0,0,1,1.35-1.35h50.24a1.35,1.35,0,0,1,1.35,1.35Zm0-44.34a1.34,1.34,0,0,1-1.35,1.35H611.43a1.35,1.35,0,0,1-1.35-1.35V613.76a1.35,1.35,0,0,1,1.35-1.35h50.24a1.34,1.34,0,0,1,1.35,1.35Zm0-44.33a1.35,1.35,0,0,1-1.35,1.35H611.43a1.36,1.36,0,0,1-1.35-1.35V569.42a1.35,1.35,0,0,1,1.35-1.34h50.24a1.34,1.34,0,0,1,1.35,1.34Zm0-44.33a1.34,1.34,0,0,1-1.35,1.34H611.43a1.35,1.35,0,0,1-1.35-1.34V525.09a1.36,1.36,0,0,1,1.35-1.35h50.24a1.35,1.35,0,0,1,1.35,1.35Zm0-44.34a1.34,1.34,0,0,1-1.35,1.35H611.43a1.35,1.35,0,0,1-1.35-1.35V480.76a1.35,1.35,0,0,1,1.35-1.35h50.24a1.34,1.34,0,0,1,1.35,1.35Zm119.11,266a1.35,1.35,0,0,1-1.35,1.34H730.54a1.34,1.34,0,0,1-1.35-1.34V746.76a1.35,1.35,0,0,1,1.35-1.35h50.24a1.36,1.36,0,0,1,1.35,1.35Zm0-44.34a1.35,1.35,0,0,1-1.35,1.35H730.54a1.34,1.34,0,0,1-1.35-1.35V702.43a1.34,1.34,0,0,1,1.35-1.35h50.24a1.35,1.35,0,0,1,1.35,1.35Zm0-44.33a1.36,1.36,0,0,1-1.35,1.35H730.54a1.35,1.35,0,0,1-1.35-1.35V658.09a1.35,1.35,0,0,1,1.35-1.35h50.24a1.36,1.36,0,0,1,1.35,1.35Zm0-44.34a1.35,1.35,0,0,1-1.35,1.35H730.54a1.34,1.34,0,0,1-1.35-1.35V613.76a1.34,1.34,0,0,1,1.35-1.35h50.24a1.35,1.35,0,0,1,1.35,1.35Zm0-44.33a1.36,1.36,0,0,1-1.35,1.35H730.54a1.35,1.35,0,0,1-1.35-1.35V569.42a1.34,1.34,0,0,1,1.35-1.34h50.24a1.35,1.35,0,0,1,1.35,1.34Zm0-44.33a1.35,1.35,0,0,1-1.35,1.34H730.54a1.34,1.34,0,0,1-1.35-1.34V525.09a1.35,1.35,0,0,1,1.35-1.35h50.24a1.36,1.36,0,0,1,1.35,1.35Zm0-44.34a1.35,1.35,0,0,1-1.35,1.35H730.54a1.34,1.34,0,0,1-1.35-1.35V480.76a1.34,1.34,0,0,1,1.35-1.35h50.24a1.35,1.35,0,0,1,1.35,1.35Z" transform="translate(-93.21 -65.12)" fill="#6764c4" opacity="0.16"/>
    <g id="Group_1" data-name="Group 1" opacity="0.18">
      <path id="Path_4" data-name="Path 4" d="M183.14,709.72a24.45,24.45,0,0,1-3.23,12.38,25.34,25.34,0,0,1,0,24.76,22.751,22.751,0,0,1,2.44,6,454.094,454.094,0,0,1-30.09-45h0a24,24,0,0,1,3.16-10.56,24.45,24.45,0,0,1-3.23-12.3,25.46,25.46,0,0,1,1.46-8.61,21.389,21.389,0,0,1,1.77-3.77c2.82-4.79,7.26-7.88,12.24-7.88s9.43,3.09,12.25,7.88a22.279,22.279,0,0,1,1.73,3.65,25.63,25.63,0,0,1,1.5,8.73,24.45,24.45,0,0,1-3.23,12.38A24.45,24.45,0,0,1,183.14,709.72Z" transform="translate(-93.21 -65.12)" fill="#3f3d56"/>
      <ellipse id="Ellipse_1" data-name="Ellipse 1" cx="15.47" cy="20.26" rx="15.47" ry="20.26" transform="translate(58.98 574.82)" fill="#3f3d56"/>
      <ellipse id="Ellipse_2" data-name="Ellipse 2" cx="15.47" cy="20.26" rx="15.47" ry="20.26" transform="translate(58.98 550.06)" fill="#3f3d56"/>
      <path id="Path_5" data-name="Path 5" d="M241.46,511.83a73.78,73.78,0,0,1-15.87,45.83,74.13,74.13,0,0,1-44,118.57c-1.78.36-3.59.64-5.42.86a74.89,74.89,0,0,1-17,.09q-2.82-.3-5.57-.83a73.3,73.3,0,0,1-23-8.41,738.53,738.53,0,0,1-34.91-83.83,73.791,73.791,0,0,1,13.29-26.45,74.19,74.19,0,0,1-11.95-69.61l56.28,18.89-52.78-27.42A74.43,74.43,0,0,1,109.07,466,74.13,74.13,0,1,1,231.5,383.05l-54.41,40,59-30.6a74.22,74.22,0,0,1-1.42,58.73l-44-.33,40.66,6.68a74.428,74.428,0,0,1-5.77,8.48,73.8,73.8,0,0,1,15.9,45.82Z" transform="translate(-93.21 -65.12)" fill="#26f941"/>
      <path id="Path_6" data-name="Path 6" d="M241.46,603.49a74.147,74.147,0,0,1-59.808,72.738c-1.792.362-3.6.642-5.432.862a74.89,74.89,0,0,1-17,.09q-2.82-.3-5.57-.83a73.3,73.3,0,0,1-23-8.41,738.516,738.516,0,0,1-34.91-83.83,73.79,73.79,0,0,1,13.29-26.45,73.83,73.83,0,0,1-15.86-45.83c0-8.32,142.32,33.22,132.38,45.83a73.78,73.78,0,0,1,15.91,45.83Z" transform="translate(-93.21 -65.12)" fill="#07ce1b"/>
    </g>
    <g id="Group_2" data-name="Group 2" opacity="0.1">
      <path id="Path_7" data-name="Path 7" d="M1075.69,690.44c-2.9,9.26-6,18.45-9.18,27.43a25.689,25.689,0,0,1-1.32-8.21C1065.19,700.73,1069.59,693.14,1075.69,690.44Z" transform="translate(-93.21 -65.12)" fill="#3f3d56"/>
      <path id="Path_8" data-name="Path 8" d="M1106.79,530.87c0,17.56-3.54,45.28-10,77a846.673,846.673,0,0,1-21.15,82.57c-2.9,9.26-6,18.45-9.18,27.43-3.65,10.19-7.5,20.11-11.53,29.6a74.4,74.4,0,0,1-32.91-115.76,74.5,74.5,0,0,1-12-69.77l56.28,18.93-52.78-27.48a74.667,74.667,0,0,1,8.45-13.55,74.39,74.39,0,0,1,29.12-114.24,127.55,127.55,0,0,1,48.75,63.93l-9.85,7.25,10.46-5.43a127,127,0,0,1,6.09,33.32h-2.94l3,.49C1106.75,527,1106.79,529,1106.79,530.87Z" transform="translate(-93.21 -65.12)" fill="#f9a826"/>
      <path id="Path_9" data-name="Path 9" d="M1096.84,607.87a846.637,846.637,0,0,1-21.15,82.57c-2.9,9.26-6,18.45-9.18,27.43-3.65,10.19-7.5,20.11-11.53,29.6a74.4,74.4,0,0,1-32.91-115.76,74.12,74.12,0,0,1-15.86-45.94C1006.21,580.74,1057.93,593.88,1096.84,607.87Z" transform="translate(-93.21 -65.12)" opacity="0.1"/>
    </g>
    <path id="Path_10" data-name="Path 10" d="M416.74,188.31A28.9,28.9,0,0,0,400,190.14a24.71,24.71,0,0,1-20.14,0,28.26,28.26,0,0,0-23.68.46,14.64,14.64,0,0,1-6.82,1.71c-9.6,0-17.59-9.67-19.25-22.43a18.58,18.58,0,0,0,4.8-5.18c5.63-9.07,14.35-14.89,24.14-14.89s18.4,5.75,24,14.73A18.53,18.53,0,0,0,399,173.25h.25C406.9,173.25,413.52,179.38,416.74,188.31Z" transform="translate(-93.21 -65.12)" fill="#f9a826" opacity="0.1"/>
    <path id="Path_11" data-name="Path 11" d="M446,148.26l-15.52,9.85L439.89,141a15.4,15.4,0,0,0-9.39-3.35h-.25a18.16,18.16,0,0,1-3.22-.23l-5.26,3.33,2.26-4.1a18.68,18.68,0,0,1-9.2-7l-9.42,6,5.95-10.81c-5.51-6.61-12.93-10.67-21.09-10.67-9.79,0-18.51,5.83-24.14,14.9a18,18,0,0,1-16,8.6h-.53c-10.81,0-19.57,12.26-19.57,27.37s8.76,27.37,19.57,27.37a14.72,14.72,0,0,0,6.82-1.7,28.22,28.22,0,0,1,23.68-.47,24.71,24.71,0,0,0,20.14.05,28.29,28.29,0,0,1,23.48.45,14.65,14.65,0,0,0,6.74,1.67c10.81,0,19.57-12.25,19.57-27.37A34.76,34.76,0,0,0,446,148.26Z" transform="translate(-93.21 -65.12)" fill="#f9a826" opacity="0.1"/>
    <path id="Path_12" data-name="Path 12" d="M861.74,351.79A20.23,20.23,0,0,0,850,353.07a17.27,17.27,0,0,1-14.1,0,19.8,19.8,0,0,0-16.58.32,10.29,10.29,0,0,1-4.77,1.2c-6.72,0-12.31-6.78-13.47-15.71a12.94,12.94,0,0,0,3.36-3.62c3.94-6.35,10-10.42,16.89-10.42s12.89,4,16.83,10.3a13,13,0,0,0,11.16,6.14h.18C854.85,341.25,859.48,345.54,861.74,351.79Z" transform="translate(-93.21 -65.12)" fill="#f9a826" opacity="0.1"/>
    <path id="Path_13" data-name="Path 13" d="M882.21,323.76l-10.86,6.89,6.59-12a10.69,10.69,0,0,0-6.57-2.35h-.17a11.211,11.211,0,0,1-2.25-.17l-3.69,2.34,1.58-2.87a13.13,13.13,0,0,1-6.44-4.89l-6.59,4.18,4.16-7.57c-3.85-4.62-9.05-7.46-14.76-7.46-6.85,0-13,4.07-16.9,10.42a12.65,12.65,0,0,1-11.17,6h-.37c-7.56,0-13.7,8.58-13.7,19.16s6.14,19.16,13.7,19.16a10.171,10.171,0,0,0,4.77-1.2,19.8,19.8,0,0,1,16.58-.32,17.5,17.5,0,0,0,7.09,1.52,17.29,17.29,0,0,0,7-1.49,19.79,19.79,0,0,1,16.43.32,10.24,10.24,0,0,0,4.72,1.17c7.57,0,13.7-8.58,13.7-19.16a24.35,24.35,0,0,0-2.85-11.68Z" transform="translate(-93.21 -65.12)" fill="#f9a826" opacity="0.1"/>
    <path id="Path_14" data-name="Path 14" d="M284.41,306.79a20.24,20.24,0,0,1,11.74,1.28,17.24,17.24,0,0,0,14.09,0,19.8,19.8,0,0,1,16.58.32,10.32,10.32,0,0,0,4.77,1.2c6.72,0,12.32-6.78,13.48-15.71a12.79,12.79,0,0,1-3.36-3.62c-3.94-6.35-10-10.42-16.9-10.42s-12.88,4-16.82,10.3a13,13,0,0,1-11.17,6.14h-.17C291.3,296.25,286.66,300.54,284.41,306.79Z" transform="translate(-93.21 -65.12)" fill="#f9a826" opacity="0.1"/>
    <path id="Path_15" data-name="Path 15" d="M263.93,278.76l10.87,6.89-6.6-12a10.71,10.71,0,0,1,6.57-2.35H275a11.26,11.26,0,0,0,2.25-.17l3.68,2.34-1.58-2.87a13.15,13.15,0,0,0,6.45-4.89l6.59,4.18-4.17-7.57c3.86-4.62,9.05-7.46,14.77-7.46,6.85,0,12.95,4.07,16.9,10.42a12.64,12.64,0,0,0,11.17,6h.36c7.57,0,13.7,8.58,13.7,19.16s-6.13,19.16-13.7,19.16a10.23,10.23,0,0,1-4.77-1.2,19.8,19.8,0,0,0-16.58-.32,17.45,17.45,0,0,1-7.08,1.52,17.22,17.22,0,0,1-7-1.49,19.81,19.81,0,0,0-16.44.32,10.21,10.21,0,0,1-4.72,1.17c-7.56,0-13.7-8.58-13.7-19.16A24.35,24.35,0,0,1,263.93,278.76Z" transform="translate(-93.21 -65.12)" fill="#f9a826" opacity="0.1"/>
    <path id="Path_16" data-name="Path 16" d="M347.51,467.12l219.43,106c5.71,2.72,13.36,4.15,20.88,4.15s15.17-1.43,20.88-4.15l219.43-106c11.55-5.58,11.55-14.66,0-20.23l-219.43-106c-5.71-2.72-13.36-4.15-20.88-4.15s-15.17,1.43-20.88,4.15l-219.43,106C336,452.46,336,461.54,347.51,467.12Z" transform="translate(-93.21 -65.12)" fill="#192534"/>
    <path id="Path_17" data-name="Path 17" d="M828.13,575.67s-40.07-19.32-45.39-21.92-6.74-2.46-12.32.13S608.57,632,608.57,632c-5.84,2.73-13.36,4.15-20.88,4.15s-15.17-1.42-20.88-4.15c0,0-152.13-73.4-159.26-76.9-7.78-3.76-10-3.76-17-.39l-43.31,20.88c-11.55,5.58-11.55,14.65,0,20.23l219.43,106c5.71,2.72,13.36,4.15,20.88,4.15s15.17-1.43,20.88-4.15l219.43-106c11.81-5.45,11.81-14.52.26-20.1Z" transform="translate(-93.21 -65.12)" fill="#192534"/>
    <path id="Path_18" data-name="Path 18" d="M828.13,704.45s-40.07-19.32-45.39-21.92-6.74-2.46-12.32.13-161.72,78.2-161.72,78.2c-5.84,2.73-13.36,4.16-20.88,4.16s-15.17-1.43-20.88-4.16c0,0-152.13-73.4-159.26-76.9-7.78-3.76-10-3.76-17-.39l-43.31,20.88c-11.55,5.58-11.55,14.66,0,20.23l219.43,106c5.71,2.85,13.36,4.15,20.88,4.15s15.17-1.43,20.88-4.15L828,724.68C839.68,719.11,839.68,710.03,828.13,704.45Z" transform="translate(-93.21 -65.12)" fill="#192534"/>
    <ellipse id="Ellipse_3" data-name="Ellipse 3" cx="47.64" cy="66.17" rx="47.64" ry="66.17" transform="translate(313.79 145.63)" fill="#192534"/>
    <rect id="Rectangle_1" data-name="Rectangle 1" width="42.35" height="42.35" transform="translate(356.14 320.32)" fill="#f9a826"/>
    <path id="Path_19" data-name="Path 19" d="M417,589.49l13.91,19.56a25.34,25.34,0,0,1,10.05-20.26A123.83,123.83,0,0,0,421.27,573a1.58,1.58,0,0,0-1.14-.38,1.65,1.65,0,0,0-.85.63c-2.07,2.45-4.7,5.69-5.59,8.83C412.84,585,415.3,587.17,417,589.49Z" transform="translate(-93.21 -65.12)" fill="#fbbebe"/>
    <path id="Path_20" data-name="Path 20" d="M444.66,586.82a12.347,12.347,0,0,1,6,2.07,30.77,30.77,0,0,1,6.91,4.53,10.48,10.48,0,0,1,3.54,7.25c0,2.23-.92,4.34-1.72,6.42a55.5,55.5,0,0,0-2.58,30.4c.65,3.32,1.61,6.8.58,10-.93,2.94-3.35,5.12-5.72,7.09-3.78,3.13-7.94,6.19-12.81,6.85s-10.5-2-11.58-6.74c-.64-2.82.37-5.71,1.07-8.51,1.67-6.69,1.63-13.67,1.58-20.57a28.381,28.381,0,0,0-.52-6.25c-.33-1.44-.89-2.82-1.36-4.23-1.26-3.79-1.81-8-.37-11.75a23.409,23.409,0,0,1,3.25-5.34C434.33,593.49,438,586.79,444.66,586.82Z" transform="translate(-93.21 -65.12)" fill="#f2f2f2"/>
    <path id="Path_21" data-name="Path 21" d="M437.11,293.71c.12,2.48.21,5.1-.94,7.3-1,1.95-2.85,3.3-4.63,4.59l-5.93,4.29c-.3.21-.63.48-.66.84a1.26,1.26,0,0,0,.64,1,19.67,19.67,0,0,0,8.23,3.75,39,39,0,0,0,6.39.54c11.12.33,22.43.58,33.16-2.34a17,17,0,0,0,5.48-2.33,7,7,0,0,0,3.08-4.91c-2.74-.15-5.16-1.76-7.42-3.31s-4.57-3.24-5.29-5.82c-.45-1.61-.19-3.35-.56-5-.62-2.66-2.84-4.65-5.22-6-6.14-3.48-13.39-3.69-20.08-5.51-2.4-.65-6.69-3.53-6.85.36C436.34,285.29,436.91,289.59,437.11,293.71Z" transform="translate(-93.21 -65.12)" fill="#fbbebe"/>
    <path id="Path_22" data-name="Path 22" d="M437.11,293.71c.12,2.48.21,5.1-.94,7.3-1,1.95-2.85,3.3-4.63,4.59l-5.93,4.29c-.3.21-.63.48-.66.84a1.26,1.26,0,0,0,.64,1,19.67,19.67,0,0,0,8.23,3.75,39,39,0,0,0,6.39.54c11.12.33,22.43.58,33.16-2.34a17,17,0,0,0,5.48-2.33,7,7,0,0,0,3.08-4.91c-2.74-.15-5.16-1.76-7.42-3.31s-4.57-3.24-5.29-5.82c-.45-1.61-.19-3.35-.56-5-.62-2.66-2.84-4.65-5.22-6-6.14-3.48-13.39-3.69-20.08-5.51-2.4-.65-6.69-3.53-6.85.36C436.34,285.29,436.91,289.59,437.11,293.71Z" transform="translate(-93.21 -65.12)" opacity="0.1"/>
    <path id="Path_23" data-name="Path 23" d="M426.29,432.71c-8.64-2.12-17.73,1-25.56,5.17s-15.07,9.63-23.39,12.78c-6.67,2.53-14.1,3.65-19.71,8.06-5,4-7.89,10.07-9.75,16.2a25.761,25.761,0,0,0-1.38,10.7,29,29,0,0,0,2.63,8c5.8,12.84,13.12,24.91,20.43,37,13.1,21.61,26.32,43.38,43.3,62.11,5.42-3.72,4.89-12.68,10.26-16.46,1.35-1,3-1.5,4.13-2.69,2.54-2.63,1.55-6.93.35-10.38a519.5,519.5,0,0,0-26.41-62.68c14.61.1,26.86-11.32,41.25-13.88a75.9,75.9,0,0,1,12.06-.8,409.156,409.156,0,0,0,42.56-3c5.12-.64,10.55-1.51,14.4-4.95,4-3.58,5.42-9.16,6.63-14.39,2.54-10.89,8.91-20.45,12.83-30.92,1-2.7,2-5.41,3.23-8,1.08-2.22,2.36-4.34,3.5-6.53,3.6-7,5.64-14.67,7.39-22.34,2.1-9.2,4-18.6,5.94-27.84,1.3-6.36,3.83-13.26.81-19-1.71-3.25-4.94-5.44-8.28-7-3.57-1.63-7.55-2.69-11.43-2.08C524.44,341,519.29,348,515,354.42l-6.7,10.09a71.288,71.288,0,0,0-4.42,7.23c-2.52,4.94-3.89,10.36-5.82,15.55-5.21,13.94-15,26.53-28.3,33.17-3.54,1.77-7.28,3.1-10.84,4.81-2.79,1.34-5.47,2.91-8.29,4.19C443,433,434.5,434.72,426.29,432.71Z" transform="translate(-93.21 -65.12)" fill="#01e7c0"/>
    <circle id="Ellipse_4" data-name="Ellipse 4" cx="26.47" cy="26.47" r="26.47" transform="translate(340.26 177.39)" fill="#fbbebe"/>
    <path id="Path_24" data-name="Path 24" d="M471.48,299.07c-1.12,3-2.3,6.11-4.41,8.55-3.78,4.36-9.89,5.91-15.66,6.14a46.29,46.29,0,0,1-18.8-3.19c-2.56-1-5.17-2.28-7.9-2-3.95.35-6.88,3.67-10.36,5.58a51.975,51.975,0,0,1-5.48,2.36,30.46,30.46,0,0,0-17.55,22.14c-2,11.28,7.08,22,12.58,32.06,2.41,4.42,5.22,8.7,6.56,13.54,2.25,8.14.08,16.81-2.77,24.76s-6.41,15.81-7,24.23c-.18,2.47.68,5.8,3.16,5.77a5.45,5.45,0,0,0,2.53-1A22.5,22.5,0,0,1,421,435.32c3.51.57,6.85,2,10.36,2.49,6.9,1,13.78-1.42,20.31-3.82,6.23-2.29,12.71-4.75,17.15-9.69,3.33-3.7,5.24-8.53,8.66-12.15,4.5-4.75,11.29-7.08,15.05-12.43,2.21-3.15,3.11-7,4.39-10.62s3.2-7.32,6.58-9.15c-1.81-3.16-3.83-6.55-3.61-10.19.19-3.17,1.95-6,3.25-8.9.85-1.91,1.52-3.9,2.19-5.88l2.16-6.43c.58-1.75,1.17-3.49,1.61-5.28.75-3,1.06-6.2,1.94-9.21,2.24-7.77,7.94-14,13.21-20.1a84.817,84.817,0,0,0-14.21-4.1,21.371,21.371,0,0,1-4.76-1.24c-1.75-.77-3.23-2-4.92-2.92-2.64-1.37-5.67-1.74-8.61-2.19a122,122,0,0,1-20.27-4.44Z" transform="translate(-93.21 -65.12)" fill="#f9a826"/>
    <path id="Path_25" data-name="Path 25" d="M382.16,416.85a25.8,25.8,0,0,0,.23,7,27.39,27.39,0,0,0,2.87,6.8c5.5,10.51,10,21.51,14.53,32.49a43.69,43.69,0,0,1,2.91,8.78c.42,2.28.47,4.62.77,6.92a22,22,0,0,0,1.79,6.56c1.06,2.26,6.8,14.33,9,15.51,4.73,2.57,11.08.2,14.09-4.27s-1-20.36-2.38-25.55-4.24-9.87-6.88-14.56a267.464,267.464,0,0,1-12.53-25.28c-3.18-7.38-6.08-15.36-4.74-23.29.75-4.46,2.81-8.59,4.36-12.84s2.6-8.95,1.28-13.29a6.282,6.282,0,0,0-1-2.11,6.72,6.72,0,0,0-2.8-1.81c-4.68-1.89-14.25-3.46-16.27,2.83-.83,2.61-1,5.46-1.7,8.13a97.608,97.608,0,0,0-2.34,12.91C382.74,406.77,382.45,411.81,382.16,416.85Z" transform="translate(-93.21 -65.12)" fill="#fbbebe"/>
    <path id="Path_26" data-name="Path 26" d="M479.16,435.65q-8.85,10.44-17.22,21.29l14.44,10.67a30.44,30.44,0,0,1,2.1-5.5,30.817,30.817,0,0,1,3.43-4.85l14.63-18.13a25.91,25.91,0,0,0-11.35-3.84C483.26,435.57,481.09,435.37,479.16,435.65Z" transform="translate(-93.21 -65.12)" fill="#fbbebe"/>
    <path id="Path_27" data-name="Path 27" d="M542.55,320.92c3.82.87,7.64,1.74,11.41,2.8,7.83,2.21,15.75,5.42,21.17,11.49,1.2,1.34,2.29,3.38,1.23,4.84a6.781,6.781,0,0,1-1.26,1.12,14.772,14.772,0,0,0-3.2,4.71,36.891,36.891,0,0,1-6.69,8.86,29.16,29.16,0,0,0-7.39-5.83l-6-3.75c-2.65-1.67-5.4-3.37-8.5-3.85-3.56-.55-7.15.57-10.75.84a22.78,22.78,0,0,1-13.11-3,3.14,3.14,0,0,1-1.24-1.07,3.1,3.1,0,0,1-.33-1.16,15.74,15.74,0,0,1,3.59-11.48c1.85-2.35,6-6.75,9.19-7.16,1.57-.2,3.8.83,5.35,1.18Z" transform="translate(-93.21 -65.12)" fill="#fbbebe"/>
    <path id="Path_28" data-name="Path 28" d="M537.9,345.63a25.58,25.58,0,0,0-3.14,1.46c-7.84,4.09-15.93,8.39-21.32,15.4A61.216,61.216,0,0,0,507,374l-13.06,27.78-2.74,5.83-4.2,8.82-10.68,22.72c3.81-.66,7.89-.62,11.36,1.08s6.17,5.35,5.88,9.21c3.1-.27,4.75-3.64,6.93-5.86,1.78-1.82,4.12-3,6.18-4.47A48.851,48.851,0,0,0,514,432a215,215,0,0,1,22.17-21.36,49.881,49.881,0,0,0,4.4-3.94,36.31,36.31,0,0,0,6.7-11.27,98.127,98.127,0,0,0,6.58-24.5c.68-5.12.92-10.52-1.17-15.24a17,17,0,0,0-18.75-9.4" transform="translate(-93.21 -65.12)" fill="#01e7c0"/>
    <path id="Path_29" data-name="Path 29" d="M536.9,346.63a25.576,25.576,0,0,0-3.14,1.46c-7.84,4.09-15.93,8.39-21.32,15.4A61.216,61.216,0,0,0,506,375l-13.06,27.78-2.74,5.83-4.2,8.82-10.68,22.72c3.81-.66,7.89-.62,11.36,1.08s6.17,5.35,5.88,9.21c3.1-.27,4.75-3.64,6.93-5.86,1.78-1.82,4.12-3,6.18-4.47A48.85,48.85,0,0,0,513,433a215,215,0,0,1,22.17-21.36,49.861,49.861,0,0,0,4.4-3.94,36.31,36.31,0,0,0,6.7-11.27,98.13,98.13,0,0,0,6.58-24.5c.68-5.12.92-10.52-1.17-15.24a17,17,0,0,0-18.75-9.4" transform="translate(-93.21 -65.12)" opacity="0.1"/>
    <path id="Path_30" data-name="Path 30" d="M468.05,453.34l-10.94-1.2a1.719,1.719,0,0,0-.9.07,1.6,1.6,0,0,0-.63.77q-5.28,9.94-9.86,20.24c-1.7,3.81-3.29,8.38-1.14,12,.64,1.06,1.57,1.94,2.17,3,1.36,2.49.74,5.59-.24,8.26a4.33,4.33,0,0,0-.42,2.43c.27,1.12,1.4,1.79,2.44,2.3a85.79,85.79,0,0,0,27.33,8.16,2.83,2.83,0,0,0,2.13-.31,2.86,2.86,0,0,0,.82-1.47,26.176,26.176,0,0,0,.89-3.26c.72-3.94-.39-8-1.23-11.88-1.36-6.36-2-13.06-.16-19.29a25.851,25.851,0,0,1,3.5-7.32c1.74-2.54-4.21-4.93-5.79-6.71C473.34,456.08,472.52,453.83,468.05,453.34Z" transform="translate(-93.21 -65.12)" fill="#f2f2f2"/>
    <path id="Path_31" data-name="Path 31" d="M387.43,365.25l-3.32,20.32c2.79-2.64,6.94-3.12,10.78-3.2s8.31.29,11,3.17c1.09,1.18,1.78,2.67,2.84,3.88s2.71,2.12,4.22,1.6a3.65,3.65,0,0,0,2.14-2.53,11,11,0,0,0,.2-3.43l-1.09-22.42c-.27-5.41-.55-10.94-2.54-16a25,25,0,0,0-4.67-7.55,8.181,8.181,0,0,0-2-1.73,8.37,8.37,0,0,0-2.65-.79c-2.6-.41-6.83-1.09-9.25.32-2,1.19-2.19,4-2.42,6.08C389.83,350.45,388.65,357.86,387.43,365.25Z" transform="translate(-93.21 -65.12)" fill="#f9a826"/>
    <ellipse id="Ellipse_5" data-name="Ellipse 5" cx="37.06" cy="15.88" rx="37.06" ry="15.88" transform="translate(329.67 172.1)" fill="#192534"/>
    <circle id="Ellipse_6" data-name="Ellipse 6" cx="21.17" cy="21.17" r="21.17" transform="translate(297.91 145.63)" fill="#192534"/>
    <circle id="Ellipse_7" data-name="Ellipse 7" cx="21.17" cy="21.17" r="21.17" transform="translate(372.03 140.34)" fill="#192534"/>
    <path id="Path_32" data-name="Path 32" d="M496.45,214.57a21.18,21.18,0,0,1,4.67,27.62,22.346,22.346,0,0,0,1.8-1.95A21.179,21.179,0,1,0,470,213.588a22.449,22.449,0,0,0-1.528,2.172,21.17,21.17,0,0,1,27.98-1.19Z" transform="translate(-93.21 -65.12)" opacity="0.1"/>
    <path id="Path_33" data-name="Path 33" d="M406.75,217.16a21.18,21.18,0,0,1,26.6,8.75,21.9,21.9,0,0,0-.88-2.5,21.178,21.178,0,1,0-38.924,16.7,19.345,19.345,0,0,0,1.2,2.358,21.17,21.17,0,0,1,12-25.31Z" transform="translate(-93.21 -65.12)" opacity="0.1"/>
    <path id="Path_34" data-name="Path 34" d="M459.94,263.68c-18.36,0-33.59-5.72-36.54-13.23a7.35,7.35,0,0,0-.52,2.65c0,8.77,16.59,15.88,37.06,15.88S497,261.87,497,253.1a7.151,7.151,0,0,0-.52-2.65C493.53,258,478.3,263.68,459.94,263.68Z" transform="translate(-93.21 -65.12)" opacity="0.1"/>
    <path id="Path_35" data-name="Path 35" d="M889.8,198c-23.961-.011-44.647,16.036-49.559,38.446s7.3,45.039,29.25,54.216a40.773,40.773,0,0,1,.881-11.076l6.515-26.361a17.751,17.751,0,0,1-1.623-7.642c0-7.177,4.335-12.516,9.76-12.516,4.637,0,6.816,3.3,6.816,7.244,0,4.43-2.968,11.076-4.474,17.168a7.213,7.213,0,0,0,1.532,6.588,7.977,7.977,0,0,0,6.466,2.715c9.575,0,16.043-11.763,16.043-25.718,0-10.589-7.488-18.519-21.05-18.519a24.6,24.6,0,0,0-17.669,6.471,22.406,22.406,0,0,0-7.252,16.7,13.562,13.562,0,0,0,3.338,9.481,2.154,2.154,0,0,1,.719,2.68c-.255.886-.788,3.035-1.043,3.9a1.647,1.647,0,0,1-.936,1.23,1.786,1.786,0,0,1-1.591-.034c-7.071-2.747-10.363-10.146-10.363-18.475,0-13.734,12.125-30.193,36.165-30.193,19.311,0,32.039,13.291,32.039,27.69,0,18.984-11.058,33.228-27.309,33.228a14.755,14.755,0,0,1-12.356-6.025s-2.944,11.076-3.57,13.291a39.1,39.1,0,0,1-5.1,10.367c18.953,5.171,39.323-.642,52.2-14.9a46.673,46.673,0,0,0,7.807-51.522C927.313,209.273,909.5,198.178,889.8,198Z" transform="translate(-97.691 28.138)" fill="#be000f"/>
    <path id="Path_36" data-name="Path 36" d="M890.017,96.942a60.043,60.043,0,0,1-15.774,4,26.063,26.063,0,0,0,12.1-13.953A58.188,58.188,0,0,1,868.849,93.1a29.31,29.31,0,0,0-30.2-6.22c-10.506,3.8-17.4,13.091-17.389,23.427a23.677,23.677,0,0,0,.7,5.762c-22.134-1.007-42.755-10.581-56.712-26.331-7.273,11.521-3.522,26.228,8.573,33.614a28.542,28.542,0,0,1-12.508-3.121v.293c-.01,11.993,9.225,22.328,22.072,24.7a30.758,30.758,0,0,1-7.231.88,30.237,30.237,0,0,1-5.19-.454c3.6,10.259,13.942,17.283,25.717,17.474A58.389,58.389,0,0,1,762.511,173.8a59.283,59.283,0,0,1-6.561-.374,82.115,82.115,0,0,0,42.1,11.392c50.647,0,78.347-38.39,78.347-71.711v-3.228a53.617,53.617,0,0,0,13.617-12.939Z" transform="translate(-140.162 -57.939)" fill="#55acee"/>
    <path id="Path_37" data-name="Path 37" d="M534.892,65.12H454.32a4.856,4.856,0,0,0-5.01,4.685v75.32a4.856,4.856,0,0,0,5.01,4.685h40.225V116.292H483.727V103.934h10.819V94.881c0-10.954,8.108-16.906,18.564-16.906,5.01,0,10.383.362,11.617.521V89.812H516.4c-5.663,0-6.753,2.535-6.753,6.224v7.876h13.529l-1.767,12.357H509.648v33.518h25.2a4.854,4.854,0,0,0,4.986-4.685V69.8a4.85,4.85,0,0,0-4.938-4.685Z" transform="translate(-93.21 -65.12)" fill="#3b5998"/>
    <path id="Path_38" data-name="Path 38" d="M626.594,180.006l-.312-1.628H594.531v15.081H612.9c-1.893,10.485-9.8,14.842-17.041,14.842A18.057,18.057,0,0,1,582,202.388c-7.7-9.036-7.812-23.461-.25-32.651a17.7,17.7,0,0,1,13.92-5.937,16.256,16.256,0,0,1,11.777,4.931L617.19,157.6a30.6,30.6,0,0,0-21.827-9.575c-8.844-.222-17.386,3.7-23.664,10.871a40.57,40.57,0,0,0-9.627,27.142,41.61,41.61,0,0,0,9.03,26.332c6.618,7.588,15.626,11.768,24.969,11.586,8.428.085,16.515-3.819,22.368-10.8a41.387,41.387,0,0,0,8.593-26.332,49.448,49.448,0,0,0-.416-6.8Zm39.3-1.6H654.33V165.117h-8.323V178.4H634.439v9.575h11.569v13.286h8.323V187.978h11.631Z" transform="translate(-93.256 -25.03)" fill="#dd4b39"/>
    <path id="Path_39" data-name="Path 39" d="M348.21,199.007c11.275.037,20.4,7.812,20.428,17.406V251.2a16.175,16.175,0,0,1-6.005,12.273,22.041,22.041,0,0,1-14.423,5.11H307.3c-11.264-.037-20.385-7.8-20.429-17.384v-34.79c.029-9.594,9.154-17.369,20.429-17.406H348.21m0-6.962H307.3c-15.793.037-28.582,10.929-28.61,24.368V251.2c.043,13.431,12.827,24.309,28.61,24.346H348.21c15.783-.037,28.567-10.915,28.61-24.346v-34.79c0-13.457-12.8-24.376-28.61-24.413Z" transform="translate(-106.225 -72.372)" fill="#e53c5f"/>
    <path id="Path_40" data-name="Path 40" d="M339,210.011a5.881,5.881,0,1,1,6.119-5.876,5.735,5.735,0,0,1-1.784,4.162A6.223,6.223,0,0,1,339,210.011Zm-26.487,3.917c9.015,0,16.321,7.02,16.316,15.677s-7.319,15.669-16.333,15.66-16.313-7.037-16.3-15.694,7.315-15.643,16.316-15.643m0-7.834c-13.52,0-24.479,10.528-24.474,23.511s10.971,23.5,24.491,23.495S337,242.556,336.988,229.572a23.015,23.015,0,0,0-7.17-16.61A24.971,24.971,0,0,0,312.514,206.094Z" transform="translate(-93.21 -65.12)" fill="#e53c5f"/>
    <path id="Path_41" data-name="Path 41" d="M791.292,288.005H714.274a7.734,7.734,0,0,0-5.448,1.871,7.066,7.066,0,0,0-2.446,5.016v73.8a7.944,7.944,0,0,0,7.894,7.547h76.993a7.531,7.531,0,0,0,7.4-7.547V294.939a6.617,6.617,0,0,0-2.114-5A7.262,7.262,0,0,0,791.292,288.005Zm-56.246,73.611H721.823V322.3h13.223Zm-6.167-45.284h0a6.8,6.8,0,1,1,7.253-6.793,6.341,6.341,0,0,1-2.087,5,6.975,6.975,0,0,1-5.314,1.772Zm54.47,45.284H770.076v-21.51c0-5.142-1.924-8.656-6.71-8.656a7.179,7.179,0,0,0-6.759,4.717,7.944,7.944,0,0,0-.469,3.09v22.406H742.915V322.3h13.223v5.472a13.536,13.536,0,0,1,11.94-6.392c8.659,0,15.221,5.472,15.221,17.265Z" transform="translate(-724.59 -101.644)" fill="#007bb6"/>
    <path id="Path_42" data-name="Path 42" d="M424.31,393.58l2.65,4.79,86.23-18.28-3.41-5.42Z" fill="#464a5f"/>
    <path id="Path_43" data-name="Path 43" d="M507.19,463.36,494.13,385.9a2.48,2.48,0,0,1,2.18-2.87l99-10.56a2.47,2.47,0,0,1,2.71,2.12l9.26,67.85Z" transform="translate(-93.21 -65.12)" fill="#464a5f"/>
    <path id="Path_44" data-name="Path 44" d="M507.19,463.36,494.13,385.9a2.48,2.48,0,0,1,2.18-2.87l99-10.56a2.47,2.47,0,0,1,2.71,2.12l9.26,67.85Z" transform="translate(-93.21 -65.12)" opacity="0.1"/>
    <path id="Path_45" data-name="Path 45" d="M508.7,463.36,495.65,385.9a2.47,2.47,0,0,1,2.17-2.87l99-10.56a2.47,2.47,0,0,1,2.71,2.12l9.25,67.85Z" transform="translate(-93.21 -65.12)" fill="#464a5f"/>
    <path id="Path_46" data-name="Path 46" d="M409.31,324.24l10.72,65.81,89.5-18.41-8.32-58.49Z" fill="#f9a826"/>
    <path id="Path_47" data-name="Path 47" d="M519.67,462l-.63-1.27-11.85,2.65,30.18,46.12a3.9,3.9,0,0,0,4.36,1.61l106-30.81a3.9,3.9,0,0,0,1.27-6.86l-41.08-31.11-8.57,2,.38.88Z" transform="translate(-93.21 -65.12)" fill="#9c9ca1"/>
    <path id="Path_48" data-name="Path 48" d="M519.67,462l-.63-1.27-11.85,2.65,30.18,46.12a3.9,3.9,0,0,0,4.36,1.61l106-30.81a3.9,3.9,0,0,0,1.27-6.86l-41.08-31.11-8.57,2,.38.88Z" transform="translate(-93.21 -65.12)" opacity="0.1"/>
    <path id="Path_49" data-name="Path 49" d="M521.18,462l-.63-1.27-11.85,2.65,30.18,46.12a3.9,3.9,0,0,0,4.36,1.61l106-30.81a3.9,3.9,0,0,0,1.26-6.86l-41.08-31.11-8.57,2,.38.88Z" transform="translate(-93.21 -65.12)" fill="#9c9ca1"/>
    <path id="Path_50" data-name="Path 50" d="M568.46,480.87,602.52,472a.67.67,0,0,1,.61.15l15.13,13.73A.66.66,0,0,1,618,487l-36,10.64a.65.65,0,0,1-.68-.21l-13.17-15.51a.67.67,0,0,1,.31-1.05Z" transform="translate(-93.21 -65.12)" opacity="0.1"/>
    <path id="Path_51" data-name="Path 51" d="M569.22,480.12l34.06-8.85a.66.66,0,0,1,.61.15L619,485.14a.66.66,0,0,1-.26,1.12l-36,10.64a.67.67,0,0,1-.69-.21l-13.16-15.51a.65.65,0,0,1,.33-1.06Z" transform="translate(-93.21 -65.12)" fill="#939498"/>
    <g id="Group_3" data-name="Group 3" opacity="0.1">
      <path id="Path_52" data-name="Path 52" d="M521.24,468.41l1.53,2.46a.3.3,0,0,0,.31.14l5.17-1.15a.3.3,0,0,0,.17-.46l-1.71-2.4a.29.29,0,0,0-.3-.12l-5,1.07a.29.29,0,0,0-.17.46Z" transform="translate(-93.21 -65.12)"/>
      <path id="Path_53" data-name="Path 53" d="M528,467l1.52,2.47a.31.31,0,0,0,.32.13l5.16-1.15a.29.29,0,0,0,.17-.46l-1.7-2.38a.3.3,0,0,0-.3-.12l-5,1.07a.29.29,0,0,0-.17.44Z" transform="translate(-93.21 -65.12)"/>
      <path id="Path_54" data-name="Path 54" d="M534.54,465.58l1.53,2.46a.3.3,0,0,0,.31.13l5.17-1.15a.3.3,0,0,0,.17-.46L540,464.18a.31.31,0,0,0-.3-.12l-5,1.07a.3.3,0,0,0-.16.45Z" transform="translate(-93.21 -65.12)"/>
      <path id="Path_55" data-name="Path 55" d="M541,464.18l1.51,2.43a.32.32,0,0,0,.34.14l5.12-1.14a.32.32,0,0,0,.18-.49l-1.68-2.35a.31.31,0,0,0-.32-.12l-5,1.06a.32.32,0,0,0-.15.47Z" transform="translate(-93.21 -65.12)"/>
      <path id="Path_56" data-name="Path 56" d="M540.47,467.94,542,470.4a.28.28,0,0,0,.31.13l5.16-1.15a.28.28,0,0,0,.17-.45l-1.7-2.39a.29.29,0,0,0-.3-.11l-5,1.07a.29.29,0,0,0-.17.44Z" transform="translate(-93.21 -65.12)"/>
      <path id="Path_57" data-name="Path 57" d="M533.78,469.36l1.53,2.46a.3.3,0,0,0,.32.13l5.16-1.15a.29.29,0,0,0,.17-.46L539.25,468a.28.28,0,0,0-.3-.11l-5,1.07a.3.3,0,0,0-.17.4Z" transform="translate(-93.21 -65.12)"/>
      <path id="Path_58" data-name="Path 58" d="M538.13,472.38l1.53,2.47a.32.32,0,0,0,.32.13l5.16-1.15a.29.29,0,0,0,.17-.46L543.6,471a.29.29,0,0,0-.3-.12l-5,1.07a.3.3,0,0,0-.17.43Z" transform="translate(-93.21 -65.12)"/>
      <path id="Path_59" data-name="Path 59" d="M544.28,475l1.53,2.46a.28.28,0,0,0,.31.13l5.16-1.15a.29.29,0,0,0,.18-.45l-1.71-2.39a.29.29,0,0,0-.3-.11l-5,1.07a.29.29,0,0,0-.17.44Z" transform="translate(-93.21 -65.12)"/>
      <path id="Path_60" data-name="Path 60" d="M545.35,479.31l2.47,3.1a.29.29,0,0,0,.3.1l5.2-1.35a.3.3,0,0,0,.16-.47l-2.56-3.12a.29.29,0,0,0-.3-.1l-5.12,1.38a.29.29,0,0,0-.15.46Z" transform="translate(-93.21 -65.12)"/>
      <path id="Path_61" data-name="Path 61" d="M552.15,477.61l2.54,3.19a.29.29,0,0,0,.3.1l6.79-1.88a.3.3,0,0,0,.15-.47l-2.56-3.13a.29.29,0,0,0-.3-.1l-6.76,1.82a.3.3,0,0,0-.16.47Z" transform="translate(-93.21 -65.12)"/>
      <path id="Path_62" data-name="Path 62" d="M538.7,481l2.47,3.1a.29.29,0,0,0,.3.1l5.2-1.35a.3.3,0,0,0,.16-.47l-2.56-3.13a.28.28,0,0,0-.3-.09l-5.12,1.37a.3.3,0,0,0-.15.47Z" transform="translate(-93.21 -65.12)"/>
      <path id="Path_63" data-name="Path 63" d="M531.67,482.78l2.47,3.09a.29.29,0,0,0,.3.1l5.2-1.35a.3.3,0,0,0,.16-.47L537.25,481a.31.31,0,0,0-.31-.1l-5.12,1.38a.3.3,0,0,0-.15.5Z" transform="translate(-93.21 -65.12)"/>
      <path id="Path_64" data-name="Path 64" d="M547.45,462.67l1.5,2.43a.32.32,0,0,0,.34.14l5.12-1.14a.31.31,0,0,0,.18-.49l-1.68-2.35a.31.31,0,0,0-.32-.12l-4.94,1.06a.3.3,0,0,0-.2.47Z" transform="translate(-93.21 -65.12)"/>
      <path id="Path_65" data-name="Path 65" d="M547,466.45l1.5,2.43a.32.32,0,0,0,.34.14l5.12-1.14a.31.31,0,0,0,.18-.49L552.5,465a.31.31,0,0,0-.32-.12L547.24,466a.31.31,0,0,0-.24.45Z" transform="translate(-93.21 -65.12)"/>
      <path id="Path_66" data-name="Path 66" d="M553.72,461.25l1.5,2.43a.32.32,0,0,0,.34.14l5.12-1.14a.31.31,0,0,0,.18-.49l-1.68-2.35a.31.31,0,0,0-.32-.12l-4.94,1.06a.31.31,0,0,0-.2.47Z" transform="translate(-93.21 -65.12)"/>
      <path id="Path_67" data-name="Path 67" d="M572.06,457.25l2.12,2.26a.28.28,0,0,0,.24.07l4.57-1.06a.25.25,0,0,0,.12-.43l-2.39-2.26a.27.27,0,0,0-.24-.06l-4.3,1.06a.25.25,0,0,0-.12.42Z" transform="translate(-93.21 -65.12)"/>
      <path id="Path_68" data-name="Path 68" d="M577.92,455.89l2.13,2.26a.24.24,0,0,0,.24.07l4.57-1.06a.24.24,0,0,0,.11-.42l-2.39-2.27a.29.29,0,0,0-.24-.06l-4.3,1.06a.26.26,0,0,0-.12.42Z" transform="translate(-93.21 -65.12)"/>
      <path id="Path_69" data-name="Path 69" d="M572.18,460.9l2.13,2.26a.24.24,0,0,0,.24.07l4.57-1.05a.25.25,0,0,0,.12-.43l-2.4-2.26a.25.25,0,0,0-.23-.07l-4.3,1.07a.25.25,0,0,0-.13.41Z" transform="translate(-93.21 -65.12)"/>
      <path id="Path_70" data-name="Path 70" d="M566.17,462.3l2,2.16a.31.31,0,0,0,.3.09l4.43-1a.32.32,0,0,0,.14-.54l-2.29-2.16a.3.3,0,0,0-.29-.07l-4.16,1a.32.32,0,0,0-.13.52Z" transform="translate(-93.21 -65.12)"/>
      <path id="Path_71" data-name="Path 71" d="M570.74,469.11l2,2.16a.33.33,0,0,0,.3.09l4.43-1a.31.31,0,0,0,.14-.53l-2.29-2.16a.33.33,0,0,0-.29-.08l-4.16,1a.32.32,0,0,0-.13.52Z" transform="translate(-93.21 -65.12)"/>
      <path id="Path_72" data-name="Path 72" d="M564.47,470.53l2,2.16a.33.33,0,0,0,.3.09l4.42-1a.31.31,0,0,0,.15-.53l-2.29-2.16a.32.32,0,0,0-.29-.08l-4.17,1a.32.32,0,0,0-.12.52Z" transform="translate(-93.21 -65.12)"/>
      <path id="Path_73" data-name="Path 73" d="M558.1,472.1l2,2.16a.31.31,0,0,0,.3.09l4.43-1a.32.32,0,0,0,.14-.54l-2.29-2.16a.3.3,0,0,0-.29-.07l-4.16,1a.31.31,0,0,0-.13.52Z" transform="translate(-93.21 -65.12)"/>
      <path id="Path_74" data-name="Path 74" d="M551.37,473.43l2.06,2.19a.3.3,0,0,0,.28.09l4.47-1a.29.29,0,0,0,.14-.5L556,472a.29.29,0,0,0-.27-.07l-4.21,1a.28.28,0,0,0-.15.5Z" transform="translate(-93.21 -65.12)"/>
      <path id="Path_75" data-name="Path 75" d="M564.41,466.59l2,2.16a.32.32,0,0,0,.3.09l4.42-1a.31.31,0,0,0,.15-.53L569,465.12a.32.32,0,0,0-.29-.08l-4.17,1a.31.31,0,0,0-.13.55Z" transform="translate(-93.21 -65.12)"/>
      <path id="Path_76" data-name="Path 76" d="M558.29,468l2,2.15a.29.29,0,0,0,.3.09l4.43-1a.31.31,0,0,0,.14-.53l-2.29-2.16a.28.28,0,0,0-.29-.08l-4.16,1a.31.31,0,0,0-.13.53Z" transform="translate(-93.21 -65.12)"/>
      <path id="Path_77" data-name="Path 77" d="M551.74,469.39l2,2.16a.31.31,0,0,0,.3.09l4.42-1a.32.32,0,0,0,.15-.54l-2.29-2.16a.31.31,0,0,0-.29-.07l-4.17,1a.31.31,0,0,0-.12.52Z" transform="translate(-93.21 -65.12)"/>
      <path id="Path_78" data-name="Path 78" d="M545,471l2.06,2.19a.34.34,0,0,0,.29.08l4.47-1a.29.29,0,0,0,.13-.5l-2.32-2.19a.3.3,0,0,0-.27-.07l-4.21,1a.3.3,0,0,0-.15.49Z" transform="translate(-93.21 -65.12)"/>
      <path id="Path_79" data-name="Path 79" d="M570.71,465.11l2,2.15a.31.31,0,0,0,.3.1l4.42-1a.31.31,0,0,0,.15-.53l-2.29-2.16a.29.29,0,0,0-.29-.08l-4.17,1a.32.32,0,0,0-.12.52Z" transform="translate(-93.21 -65.12)"/>
      <path id="Path_80" data-name="Path 80" d="M560,463.88l2,2.16a.32.32,0,0,0,.3.09l4.42-1a.31.31,0,0,0,.14-.53l-2.28-2.16a.32.32,0,0,0-.29-.08l-4.17,1a.31.31,0,0,0-.12.52Z" transform="translate(-93.21 -65.12)"/>
      <path id="Path_81" data-name="Path 81" d="M583.58,454.46l2.23,2.36a.19.19,0,0,0,.18.06l4.72-1.1a.19.19,0,0,0,.09-.32l-2.51-2.37a.19.19,0,0,0-.18,0l-4.44,1.1a.18.18,0,0,0-.09.27Z" transform="translate(-93.21 -65.12)"/>
      <path id="Path_82" data-name="Path 82" d="M589.28,453.19l2.23,2.37a.21.21,0,0,0,.18.06l4.72-1.1a.19.19,0,0,0,.09-.32l-2.5-2.37a.17.17,0,0,0-.17,0l-4.45,1.1a.18.18,0,0,0-.1.26Z" transform="translate(-93.21 -65.12)"/>
      <path id="Path_83" data-name="Path 83" d="M595.15,451.85l2,2.19a.18.18,0,0,0,.19.06l4.4-1.2a.2.2,0,0,0,.07-.33l-2.27-1.91a.2.2,0,0,0-.16,0l-4.17.92a.18.18,0,0,0-.06.27Z" transform="translate(-93.21 -65.12)"/>
      <path id="Path_84" data-name="Path 84" d="M601.29,453.89l2,2.2a.2.2,0,0,0,.18.06l4.4-1.2a.19.19,0,0,0,.07-.33l-2.27-1.91a.16.16,0,0,0-.16,0l-4.16.91a.19.19,0,0,0-.06.27Z" transform="translate(-93.21 -65.12)"/>
      <path id="Path_85" data-name="Path 85" d="M600.55,457.89l1.93,2.08a.23.23,0,0,0,.25.07l4.24-1.15a.25.25,0,0,0,.1-.44l-2.15-1.82a.25.25,0,0,0-.22-.05l-4,.89a.25.25,0,0,0-.15.42Z" transform="translate(-93.21 -65.12)"/>
      <path id="Path_86" data-name="Path 86" d="M595.54,463l1.93,2.09a.25.25,0,0,0,.25.07L602,464a.25.25,0,0,0,.1-.43l-2.15-1.82a.25.25,0,0,0-.22,0l-4,.88a.26.26,0,0,0-.19.37Z" transform="translate(-93.21 -65.12)"/>
      <path id="Path_87" data-name="Path 87" d="M589.52,464.54l1.93,2.08a.23.23,0,0,0,.25.07l4.24-1.15a.25.25,0,0,0,.1-.44l-2.15-1.82a.25.25,0,0,0-.22,0l-4,.89a.25.25,0,0,0-.15.37Z" transform="translate(-93.21 -65.12)"/>
      <path id="Path_88" data-name="Path 88" d="M601.21,461.48l1.93,2.08a.27.27,0,0,0,.25.08l4.25-1.16a.25.25,0,0,0,.09-.44l-2.15-1.81a.29.29,0,0,0-.22-.06l-4,.89a.26.26,0,0,0-.15.42Z" transform="translate(-93.21 -65.12)"/>
      <path id="Path_89" data-name="Path 89" d="M600.23,466l2.91,2.62a.3.3,0,0,0,.24,0l4.21-1.19a.25.25,0,0,0,.1-.43l-3.14-2.75a.23.23,0,0,0-.24,0l-4,1.33a.24.24,0,0,0-.08.42Z" transform="translate(-93.21 -65.12)"/>
      <path id="Path_90" data-name="Path 90" d="M590,456.73l2,2.2a.17.17,0,0,0,.18.05l4.4-1.2a.18.18,0,0,0,.07-.32l-2.27-1.92a.18.18,0,0,0-.16,0l-4.16.92a.19.19,0,0,0-.06.27Z" transform="translate(-93.21 -65.12)"/>
      <path id="Path_91" data-name="Path 91" d="M584.35,458.14l1.93,2.08a.27.27,0,0,0,.25.08l4.25-1.16a.25.25,0,0,0,.09-.44l-2.15-1.81a.29.29,0,0,0-.22-.06l-4,.89a.25.25,0,0,0-.15.42Z" transform="translate(-93.21 -65.12)"/>
      <path id="Path_92" data-name="Path 92" d="M583.19,462.17l1.93,2.09a.25.25,0,0,0,.25.07l4.24-1.16a.25.25,0,0,0,.1-.43l-2.16-1.82a.25.25,0,0,0-.22-.05l-4,.88a.25.25,0,0,0-.14.42Z" transform="translate(-93.21 -65.12)"/>
      <path id="Path_93" data-name="Path 93" d="M577.2,463.62l1.93,2.09a.25.25,0,0,0,.25.07l4.24-1.16a.25.25,0,0,0,.1-.43l-2.16-1.82a.23.23,0,0,0-.21-.05l-4,.88a.25.25,0,0,0-.15.42Z" transform="translate(-93.21 -65.12)"/>
      <path id="Path_94" data-name="Path 94" d="M578.27,459.49l1.93,2.09a.23.23,0,0,0,.25.07l4.24-1.16a.25.25,0,0,0,.1-.43l-2.15-1.82a.25.25,0,0,0-.22-.05l-4,.89a.25.25,0,0,0-.15.41Z" transform="translate(-93.21 -65.12)"/>
      <path id="Path_95" data-name="Path 95" d="M583.28,465.89l1.93,2.09a.25.25,0,0,0,.25.07l4.24-1.16a.25.25,0,0,0,.1-.43l-2.15-1.82a.25.25,0,0,0-.22-.05l-4,.88a.26.26,0,0,0-.15.42Z" transform="translate(-93.21 -65.12)"/>
      <path id="Path_96" data-name="Path 96" d="M577.4,467.48l1.83,2a.3.3,0,0,0,.31.09l4.09-1.11a.32.32,0,0,0,.12-.55l-2-1.72a.29.29,0,0,0-.27-.06l-3.88.85a.31.31,0,0,0-.2.5Z" transform="translate(-93.21 -65.12)"/>
      <path id="Path_97" data-name="Path 97" d="M595.84,455.28l2,2.2a.19.19,0,0,0,.19,0l4.4-1.2a.18.18,0,0,0,.07-.32l-2.27-1.92a.22.22,0,0,0-.16,0l-4.16.92a.19.19,0,0,0-.07.32Z" transform="translate(-93.21 -65.12)"/>
      <path id="Path_98" data-name="Path 98" d="M595,459.24l1.93,2.09a.25.25,0,0,0,.25.07l4.24-1.16a.25.25,0,0,0,.1-.43L599.4,458a.25.25,0,0,0-.22-.05l-4,.88a.25.25,0,0,0-.18.41Z" transform="translate(-93.21 -65.12)"/>
      <path id="Path_99" data-name="Path 99" d="M589.27,460.82l1.93,2.08a.26.26,0,0,0,.25.08l4.24-1.16a.26.26,0,0,0,.1-.44l-2.16-1.81a.27.27,0,0,0-.21-.06l-4,.89a.25.25,0,0,0-.15.42Z" transform="translate(-93.21 -65.12)"/>
      <path id="Path_100" data-name="Path 100" d="M566.07,458.54l2.13,2.26a.26.26,0,0,0,.24.07l4.57-1.06a.25.25,0,0,0,.11-.43l-2.39-2.26a.26.26,0,0,0-.24-.06l-4.3,1.06a.26.26,0,0,0-.12.42Z" transform="translate(-93.21 -65.12)"/>
      <path id="Path_101" data-name="Path 101" d="M560,460l2,2.16a.31.31,0,0,0,.3.09l4.43-1a.32.32,0,0,0,.14-.54l-2.29-2.16a.3.3,0,0,0-.29-.07l-4.16,1a.32.32,0,0,0-.13.52Z" transform="translate(-93.21 -65.12)"/>
      <path id="Path_102" data-name="Path 102" d="M553.43,465.1l1.51,2.42a.31.31,0,0,0,.34.14l5.11-1.14a.31.31,0,0,0,.19-.49l-1.68-2.34a.34.34,0,0,0-.32-.13l-5,1.06a.32.32,0,0,0-.15.48Z" transform="translate(-93.21 -65.12)"/>
      <path id="Path_103" data-name="Path 103" d="M519.92,466l5.05-1.17a.29.29,0,0,1,.3.11l.89,1.17a.29.29,0,0,1-.17.46l-5.23,1.22a.29.29,0,0,1-.32-.14l-.71-1.22a.29.29,0,0,1,.19-.43Z" transform="translate(-93.21 -65.12)"/>
      <path id="Path_104" data-name="Path 104" d="M526.87,464.49l5-1.17a.28.28,0,0,1,.3.11l.89,1.16a.3.3,0,0,1-.17.47l-5.23,1.22a.3.3,0,0,1-.32-.14l-.71-1.22a.29.29,0,0,1,.24-.43Z" transform="translate(-93.21 -65.12)"/>
      <path id="Path_105" data-name="Path 105" d="M533.58,463l5-1.16a.28.28,0,0,1,.3.1l.89,1.17a.29.29,0,0,1-.17.46l-5.23,1.22a.29.29,0,0,1-.32-.14l-.71-1.21a.3.3,0,0,1,.24-.44Z" transform="translate(-93.21 -65.12)"/>
      <path id="Path_106" data-name="Path 106" d="M540.11,461.55l5-1.16a.28.28,0,0,1,.3.11l.89,1.16a.3.3,0,0,1-.17.47L541,463.34a.28.28,0,0,1-.32-.13l-.71-1.22a.3.3,0,0,1,.14-.44Z" transform="translate(-93.21 -65.12)"/>
      <path id="Path_107" data-name="Path 107" d="M546.77,460.08l5-1.16a.33.33,0,0,1,.32.12l.86,1.13a.32.32,0,0,1-.18.5l-5.19,1.21a.32.32,0,0,1-.34-.15l-.69-1.18a.32.32,0,0,1,.22-.47Z" transform="translate(-93.21 -65.12)"/>
      <path id="Path_108" data-name="Path 108" d="M553.23,458.74l5-1.16a.3.3,0,0,1,.32.11l.86,1.13a.32.32,0,0,1-.18.5l-5.19,1.21a.32.32,0,0,1-.34-.15l-.7-1.18a.31.31,0,0,1,.23-.46Z" transform="translate(-93.21 -65.12)"/>
      <path id="Path_109" data-name="Path 109" d="M559.54,457.42l4.63-1.12a.3.3,0,0,1,.3.09l.9.94a.31.31,0,0,1-.15.52L560.64,459a.29.29,0,0,1-.29-.08l-1-1a.32.32,0,0,1,.19-.5Z" transform="translate(-93.21 -65.12)"/>
      <path id="Path_110" data-name="Path 110" d="M565.68,456l4.77-1.16a.24.24,0,0,1,.24.07l1,1.05a.24.24,0,0,1-.12.41l-4.71,1.19a.26.26,0,0,1-.24-.07l-1.05-1.07a.25.25,0,0,1,.11-.42Z" transform="translate(-93.21 -65.12)"/>
      <path id="Path_111" data-name="Path 111" d="M571.8,454.57l4.77-1.16a.22.22,0,0,1,.24.07l1,1a.26.26,0,0,1-.12.42L573,456.13a.27.27,0,0,1-.24-.07L571.68,455a.25.25,0,0,1,.12-.43Z" transform="translate(-93.21 -65.12)"/>
      <path id="Path_112" data-name="Path 112" d="M577.92,453.31l4.77-1.16a.26.26,0,0,1,.24.07l1,1a.26.26,0,0,1-.12.42l-4.71,1.18a.26.26,0,0,1-.25-.07l-1.05-1.06a.26.26,0,0,1,.12-.38Z" transform="translate(-93.21 -65.12)"/>
      <path id="Path_113" data-name="Path 113" d="M583.72,451.92l4.92-1.19a.18.18,0,0,1,.18,0l1.09,1.15a.18.18,0,0,1-.09.31L585,453.46a.17.17,0,0,1-.18,0l-1.16-1.17a.19.19,0,0,1,.06-.37Z" transform="translate(-93.21 -65.12)"/>
      <path id="Path_114" data-name="Path 114" d="M589.58,450.67l4.92-1.2a.21.21,0,0,1,.18.06l1.1,1.15a.19.19,0,0,1-.09.31l-4.86,1.22a.18.18,0,0,1-.18,0L589.49,451a.19.19,0,0,1,.09-.33Z" transform="translate(-93.21 -65.12)"/>
      <path id="Path_115" data-name="Path 115" d="M595.43,449.33l4.54-1a.19.19,0,0,1,.19.07l.88,1.08a.18.18,0,0,1-.1.29l-4.27,1.13a.17.17,0,0,1-.18-.05l-1.16-1.17a.182.182,0,0,1,.1-.35Z" transform="translate(-93.21 -65.12)"/>
      <path id="Path_116" data-name="Path 116" d="M601,448.05l4.55-1a.18.18,0,0,1,.19.06l.88,1.08a.19.19,0,0,1-.1.3l-4.27,1.13a.22.22,0,0,1-.18,0l-1.16-1.18a.2.2,0,0,1,.09-.39Z" transform="translate(-93.21 -65.12)"/>
      <path id="Path_117" data-name="Path 117" d="M523.46,472l1.68,2.39a.29.29,0,0,0,.31.12l8.75-2a.29.29,0,0,0,.16-.46l-1.85-2.45a.3.3,0,0,0-.31-.1l-8.56,2.09a.31.31,0,0,0-.18.41Z" transform="translate(-93.21 -65.12)"/>
      <path id="Path_118" data-name="Path 118" d="M526.11,475.23l1.68,2.66a.28.28,0,0,0,.31.13l10.57-2.51a.29.29,0,0,0,.16-.47l-2.09-2.59a.29.29,0,0,0-.3-.1l-10.15,2.44a.29.29,0,0,0-.18.44Z" transform="translate(-93.21 -65.12)"/>
      <path id="Path_119" data-name="Path 119" d="M528.5,478.75l2,2.89a.29.29,0,0,0,.31.12l14-3.46a.3.3,0,0,0,.17-.47l-2.26-2.89a.29.29,0,0,0-.3-.11l-13.84,3.47a.29.29,0,0,0-.08.45Z" transform="translate(-93.21 -65.12)"/>
      <path id="Path_120" data-name="Path 120" d="M560.55,475.59l2.56,3.09a.32.32,0,0,0,.32.1l30.8-7.69a.3.3,0,0,0,.14-.52l-3.14-3.13a.3.3,0,0,0-.3-.08l-30.22,7.73a.31.31,0,0,0-.16.5Z" transform="translate(-93.21 -65.12)"/>
      <path id="Path_121" data-name="Path 121" d="M592.35,467.62l3,3a.26.26,0,0,0,.25.07l6.31-1.69a.25.25,0,0,0,.11-.42l-3.13-3.07a.23.23,0,0,0-.24-.06l-6.2,1.71a.25.25,0,0,0-.1.46Z" transform="translate(-93.21 -65.12)"/>
      <path id="Path_122" data-name="Path 122" d="M607.6,465.71l1.37,1.46a.18.18,0,0,0,.18.05l4.68-1.26a.18.18,0,0,0,.08-.31l-1.67-1.57a.19.19,0,0,0-.18,0l-4.38,1.37a.18.18,0,0,0-.08.26Z" transform="translate(-93.21 -65.12)"/>
      <path id="Path_123" data-name="Path 123" d="M611.58,462.6l1.64,1.72a.17.17,0,0,0,.19.05l4.29-1.49a.18.18,0,0,0,.07-.31l-1.6-1.45a.2.2,0,0,0-.18,0l-4.33,1.21a.19.19,0,0,0-.08.27Z" transform="translate(-93.21 -65.12)"/>
      <path id="Path_124" data-name="Path 124" d="M614.74,465.58l-1.18-1a.19.19,0,0,1,.06-.32l4.27-1.48a.18.18,0,0,1,.2,0l1.33,1.29a.19.19,0,0,1-.08.32l-4.44,1.15A.2.2,0,0,1,614.74,465.58Z" transform="translate(-93.21 -65.12)"/>
      <path id="Path_125" data-name="Path 125" d="M619.12,462.94c.37.35,1,1.06,1.27,1.3a.19.19,0,0,0,.18.05l4.45-1.21a.19.19,0,0,0,.08-.32l-1.58-1.42a.17.17,0,0,0-.18,0l-4.14,1.33a.18.18,0,0,0-.08.27Z" transform="translate(-93.21 -65.12)"/>
      <path id="Path_126" data-name="Path 126" d="M606.63,460.12l2.39,2.3a.16.16,0,0,0,.17.05l11.49-3a.18.18,0,0,0,.07-.32L618,456.81a.17.17,0,0,0-.17,0l-11.08,3a.18.18,0,0,0-.12.31Z" transform="translate(-93.21 -65.12)"/>
      <path id="Path_127" data-name="Path 127" d="M605.85,456.58l2.46,2.19a.21.21,0,0,0,.17,0l8.64-2a.19.19,0,0,0,.08-.33l-2.83-2.37a.21.21,0,0,0-.17,0l-8.27,2.23a.19.19,0,0,0-.08.28Z" transform="translate(-93.21 -65.12)"/>
      <path id="Path_128" data-name="Path 128" d="M606.64,452.81l2.33,2.08a.18.18,0,0,0,.17,0l4.43-1a.2.2,0,0,0,.09-.33l-2.76-2.38a.19.19,0,0,0-.18,0l-4,1.28a.19.19,0,0,0-.08.35Z" transform="translate(-93.21 -65.12)"/>
      <path id="Path_129" data-name="Path 129" d="M600.57,450.74l2.26,2.05a.2.2,0,0,0,.17,0l7-1.67a.19.19,0,0,0,.08-.32l-2.69-2.25a.21.21,0,0,0-.17,0l-6.6,1.87a.19.19,0,0,0-.05.32Z" transform="translate(-93.21 -65.12)"/>
    </g>
    <path id="Path_130" data-name="Path 130" d="M521.24,467.66l1.53,2.46a.3.3,0,0,0,.31.13l5.17-1.15a.3.3,0,0,0,.17-.46l-1.71-2.38a.31.31,0,0,0-.3-.12l-5,1.07a.3.3,0,0,0-.17.45Z" transform="translate(-93.21 -65.12)" fill="#464a5f"/>
    <path id="Path_131" data-name="Path 131" d="M528,466.24l1.52,2.46a.3.3,0,0,0,.32.13l5.16-1.15a.29.29,0,0,0,.17-.46l-1.7-2.38a.29.29,0,0,0-.3-.11l-5,1.07a.29.29,0,0,0-.17.44Z" transform="translate(-93.21 -65.12)" fill="#464a5f"/>
    <path id="Path_132" data-name="Path 132" d="M534.54,464.82l1.53,2.46a.28.28,0,0,0,.31.13l5.17-1.15a.29.29,0,0,0,.17-.45L540,463.42a.29.29,0,0,0-.3-.11l-5,1.07a.29.29,0,0,0-.16.44Z" transform="translate(-93.21 -65.12)" fill="#464a5f"/>
    <path id="Path_133" data-name="Path 133" d="M541,463.42l1.51,2.43a.31.31,0,0,0,.34.14l5.12-1.14a.32.32,0,0,0,.18-.49l-1.7-2.36a.31.31,0,0,0-.32-.13l-5,1.06a.32.32,0,0,0-.13.49Z" transform="translate(-93.21 -65.12)" fill="#464a5f"/>
    <path id="Path_134" data-name="Path 134" d="M540.47,467.18l1.53,2.47a.31.31,0,0,0,.31.13l5.16-1.15a.29.29,0,0,0,.17-.46l-1.7-2.38a.3.3,0,0,0-.3-.12l-5,1.07a.29.29,0,0,0-.17.44Z" transform="translate(-93.21 -65.12)" fill="#464a5f"/>
    <path id="Path_135" data-name="Path 135" d="M533.78,468.6l1.53,2.46a.32.32,0,0,0,.32.14l5.16-1.15a.29.29,0,0,0,.17-.46l-1.71-2.38a.29.29,0,0,0-.3-.12l-5,1.07a.3.3,0,0,0-.17.44Z" transform="translate(-93.21 -65.12)" fill="#464a5f"/>
    <path id="Path_136" data-name="Path 136" d="M538.13,471.63l1.53,2.46a.29.29,0,0,0,.32.13l5.16-1.15a.29.29,0,0,0,.17-.46l-1.71-2.38a.28.28,0,0,0-.3-.11l-5,1.06a.3.3,0,0,0-.17.45Z" transform="translate(-93.21 -65.12)" fill="#464a5f"/>
    <path id="Path_137" data-name="Path 137" d="M544.28,474.27l1.53,2.47a.29.29,0,0,0,.31.13l5.16-1.15a.3.3,0,0,0,.18-.46l-1.71-2.38a.3.3,0,0,0-.3-.12l-5,1.07a.29.29,0,0,0-.17.44Z" transform="translate(-93.21 -65.12)" fill="#464a5f"/>
    <path id="Path_138" data-name="Path 138" d="M545.35,478.56l2.47,3.09a.29.29,0,0,0,.3.1l5.2-1.35a.3.3,0,0,0,.16-.47l-2.56-3.12a.29.29,0,0,0-.3-.1l-5.12,1.38a.3.3,0,0,0-.15.47Z" transform="translate(-93.21 -65.12)" fill="#464a5f"/>
    <path id="Path_139" data-name="Path 139" d="M552.15,476.85l2.54,3.19a.29.29,0,0,0,.3.1l6.79-1.88a.3.3,0,0,0,.15-.47l-2.56-3.12a.29.29,0,0,0-.3-.1l-6.76,1.82a.29.29,0,0,0-.16.46Z" transform="translate(-93.21 -65.12)" fill="#464a5f"/>
    <path id="Path_140" data-name="Path 140" d="M538.7,480.2l2.47,3.09a.29.29,0,0,0,.3.1l5.2-1.35a.3.3,0,0,0,.16-.47l-2.56-3.12a.29.29,0,0,0-.3-.1l-5.12,1.38a.3.3,0,0,0-.15.47Z" transform="translate(-93.21 -65.12)" fill="#464a5f"/>
    <path id="Path_141" data-name="Path 141" d="M531.67,482l2.47,3.1a.29.29,0,0,0,.3.1l5.2-1.35a.3.3,0,0,0,.16-.47l-2.55-3.12a.31.31,0,0,0-.31-.1l-5.12,1.38a.29.29,0,0,0-.15.46Z" transform="translate(-93.21 -65.12)" fill="#464a5f"/>
    <path id="Path_142" data-name="Path 142" d="M547.45,461.91l1.5,2.43a.32.32,0,0,0,.34.14l5.12-1.14a.31.31,0,0,0,.18-.49l-1.68-2.35a.31.31,0,0,0-.32-.12l-4.94,1.06a.31.31,0,0,0-.2.47Z" transform="translate(-93.21 -65.12)" fill="#464a5f"/>
    <path id="Path_143" data-name="Path 143" d="M547,465.69l1.5,2.43a.32.32,0,0,0,.34.14l5.12-1.14a.31.31,0,0,0,.18-.49l-1.68-2.34a.31.31,0,0,0-.32-.13l-4.94,1.06a.31.31,0,0,0-.2.47Z" transform="translate(-93.21 -65.12)" fill="#464a5f"/>
    <path id="Path_144" data-name="Path 144" d="M553.72,460.49l1.5,2.43a.32.32,0,0,0,.34.14l5.12-1.14a.31.31,0,0,0,.18-.49l-1.68-2.35a.32.32,0,0,0-.32-.12L553.92,460a.31.31,0,0,0-.2.49Z" transform="translate(-93.21 -65.12)" fill="#464a5f"/>
    <path id="Path_145" data-name="Path 145" d="M572.06,456.49l2.12,2.26a.28.28,0,0,0,.24.07l4.57-1.06a.25.25,0,0,0,.12-.43l-2.39-2.26a.27.27,0,0,0-.24-.06l-4.3,1.06a.25.25,0,0,0-.12.42Z" transform="translate(-93.21 -65.12)" fill="#464a5f"/>
    <path id="Path_146" data-name="Path 146" d="M577.92,455.14l2.13,2.25a.24.24,0,0,0,.24.08l4.57-1.06A.25.25,0,0,0,585,456l-2.39-2.26a.26.26,0,0,0-.24-.06l-4.3,1.06a.26.26,0,0,0-.15.4Z" transform="translate(-93.21 -65.12)" fill="#464a5f"/>
    <path id="Path_147" data-name="Path 147" d="M572.18,460.15l2.13,2.26a.26.26,0,0,0,.24.07l4.57-1.06a.25.25,0,0,0,.12-.43l-2.4-2.26a.24.24,0,0,0-.23-.06l-4.3,1.06a.26.26,0,0,0-.13.42Z" transform="translate(-93.21 -65.12)" fill="#464a5f"/>
    <path id="Path_148" data-name="Path 148" d="M566.17,461.55l2,2.15a.31.31,0,0,0,.3.09l4.43-1a.31.31,0,0,0,.14-.53l-2.29-2.16a.28.28,0,0,0-.29-.08l-4.16,1a.31.31,0,0,0-.13.53Z" transform="translate(-93.21 -65.12)" fill="#464a5f"/>
    <path id="Path_149" data-name="Path 149" d="M570.74,468.35l2,2.16a.31.31,0,0,0,.3.09l4.43-1a.32.32,0,0,0,.14-.54l-2.29-2.16a.3.3,0,0,0-.29-.07l-4.16,1a.32.32,0,0,0-.13.52Z" transform="translate(-93.21 -65.12)" fill="#464a5f"/>
    <path id="Path_150" data-name="Path 150" d="M564.47,469.77l2,2.16a.33.33,0,0,0,.3.09l4.42-1a.31.31,0,0,0,.15-.53l-2.29-2.16a.34.34,0,0,0-.29-.08l-4.17,1a.32.32,0,0,0-.12.52Z" transform="translate(-93.21 -65.12)" fill="#464a5f"/>
    <path id="Path_151" data-name="Path 151" d="M558.1,471.35l2,2.16a.34.34,0,0,0,.3.09l4.43-1a.312.312,0,0,0,.17-.6l-2.29-2.16a.3.3,0,0,0-.29-.08l-4.16,1a.31.31,0,0,0-.16.59Z" transform="translate(-93.21 -65.12)" fill="#464a5f"/>
    <path id="Path_152" data-name="Path 152" d="M551.37,472.68l2.06,2.19a.29.29,0,0,0,.28.08l4.47-1a.3.3,0,0,0,.14-.5l-2.33-2.2a.32.32,0,0,0-.27-.07l-4.21,1a.29.29,0,0,0-.14.5Z" transform="translate(-93.21 -65.12)" fill="#464a5f"/>
    <path id="Path_153" data-name="Path 153" d="M564.41,465.83l2,2.16a.3.3,0,0,0,.3.09l4.42-1a.32.32,0,0,0,.15-.54L569,464.36a.31.31,0,0,0-.29-.07l-4.17,1a.31.31,0,0,0-.13.54Z" transform="translate(-93.21 -65.12)" fill="#464a5f"/>
    <path id="Path_154" data-name="Path 154" d="M558.29,467.25l2,2.16a.33.33,0,0,0,.3.09l4.43-1a.31.31,0,0,0,.14-.53l-2.29-2.16a.33.33,0,0,0-.29-.08l-4.16,1a.32.32,0,0,0-.13.52Z" transform="translate(-93.21 -65.12)" fill="#464a5f"/>
    <path id="Path_155" data-name="Path 155" d="M551.74,468.64l2,2.15a.31.31,0,0,0,.3.1l4.42-1a.31.31,0,0,0,.15-.53l-2.29-2.16a.29.29,0,0,0-.29-.08l-4.17,1a.31.31,0,0,0-.12.52Z" transform="translate(-93.21 -65.12)" fill="#464a5f"/>
    <path id="Path_156" data-name="Path 156" d="M545,470.19l2.06,2.19a.31.31,0,0,0,.29.08l4.47-1a.3.3,0,0,0,.13-.5l-2.32-2.19a.3.3,0,0,0-.27-.08l-4.21,1a.3.3,0,0,0-.15.5Z" transform="translate(-93.21 -65.12)" fill="#464a5f"/>
    <path id="Path_157" data-name="Path 157" d="M570.71,464.35l2,2.16a.33.33,0,0,0,.3.09l4.42-1a.31.31,0,0,0,.15-.53l-2.29-2.16a.34.34,0,0,0-.29-.08l-4.17,1a.32.32,0,0,0-.12.52Z" transform="translate(-93.21 -65.12)" fill="#464a5f"/>
    <path id="Path_158" data-name="Path 158" d="M560,463.12l2,2.16a.3.3,0,0,0,.3.09l4.42-1a.31.31,0,0,0,.14-.53l-2.28-2.16a.34.34,0,0,0-.29-.08l-4.17,1a.31.31,0,0,0-.12.52Z" transform="translate(-93.21 -65.12)" fill="#464a5f"/>
    <path id="Path_159" data-name="Path 159" d="M583.58,453.7l2.23,2.37a.19.19,0,0,0,.18.05l4.72-1.09a.19.19,0,0,0,.09-.32l-2.51-2.37a.2.2,0,0,0-.18,0l-4.44,1.1a.18.18,0,0,0-.09.26Z" transform="translate(-93.21 -65.12)" fill="#464a5f"/>
    <path id="Path_160" data-name="Path 160" d="M589.28,452.44l2.23,2.37a.24.24,0,0,0,.18.05l4.72-1.09a.19.19,0,0,0,.09-.32l-2.5-2.37a.18.18,0,0,0-.17-.05l-4.45,1.1a.19.19,0,0,0-.1.31Z" transform="translate(-93.21 -65.12)" fill="#464a5f"/>
    <path id="Path_161" data-name="Path 161" d="M595.15,451.09l2,2.2a.19.19,0,0,0,.19,0l4.4-1.2a.19.19,0,0,0,.07-.32l-2.27-1.92a.2.2,0,0,0-.16,0l-4.17.92a.18.18,0,0,0-.06.32Z" transform="translate(-93.21 -65.12)" fill="#464a5f"/>
    <path id="Path_162" data-name="Path 162" d="M601.29,453.14l2,2.2a.17.17,0,0,0,.18.05l4.4-1.2a.18.18,0,0,0,.07-.32L605.71,452a.18.18,0,0,0-.16,0l-4.16.92a.19.19,0,0,0-.1.22Z" transform="translate(-93.21 -65.12)" fill="#464a5f"/>
    <path id="Path_163" data-name="Path 163" d="M600.55,457.13l1.93,2.09a.28.28,0,0,0,.25.07l4.24-1.16a.25.25,0,0,0,.1-.44l-2.15-1.81a.29.29,0,0,0-.22-.06l-4,.89a.26.26,0,0,0-.15.42Z" transform="translate(-93.21 -65.12)" fill="#464a5f"/>
    <path id="Path_164" data-name="Path 164" d="M595.54,462.2l1.93,2.09a.23.23,0,0,0,.25.07L602,463.2a.25.25,0,0,0,.1-.43L599.91,461a.25.25,0,0,0-.22-.05l-4,.89a.25.25,0,0,0-.15.36Z" transform="translate(-93.21 -65.12)" fill="#464a5f"/>
    <path id="Path_165" data-name="Path 165" d="M589.52,463.78l1.93,2.09a.28.28,0,0,0,.25.07l4.24-1.16a.25.25,0,0,0,.1-.44l-2.15-1.81a.29.29,0,0,0-.22-.06l-4,.89a.26.26,0,0,0-.15.42Z" transform="translate(-93.21 -65.12)" fill="#464a5f"/>
    <path id="Path_166" data-name="Path 166" d="M601.21,460.72l1.93,2.09a.24.24,0,0,0,.25.07l4.25-1.16a.25.25,0,0,0,.09-.43l-2.15-1.82a.25.25,0,0,0-.22-.05l-4,.88a.26.26,0,0,0-.15.42Z" transform="translate(-93.21 -65.12)" fill="#464a5f"/>
    <path id="Path_167" data-name="Path 167" d="M600.23,465.23l2.91,2.61a.24.24,0,0,0,.24.05l4.21-1.19a.25.25,0,0,0,.1-.43l-3.14-2.75a.23.23,0,0,0-.24,0l-4,1.33a.25.25,0,0,0-.08.38Z" transform="translate(-93.21 -65.12)" fill="#464a5f"/>
    <path id="Path_168" data-name="Path 168" d="M590,456l2,2.2a.19.19,0,0,0,.18.06l4.4-1.2a.19.19,0,0,0,.07-.33l-2.27-1.91a.16.16,0,0,0-.16,0l-4.16.91a.19.19,0,0,0-.06.27Z" transform="translate(-93.21 -65.12)" fill="#464a5f"/>
    <path id="Path_169" data-name="Path 169" d="M584.35,457.38l1.93,2.09a.26.26,0,0,0,.25.07l4.25-1.16a.25.25,0,0,0,.09-.43l-2.15-1.82a.25.25,0,0,0-.22-.05l-4,.88a.26.26,0,0,0-.15.42Z" transform="translate(-93.21 -65.12)" fill="#464a5f"/>
    <path id="Path_170" data-name="Path 170" d="M583.19,461.42l1.93,2.08a.23.23,0,0,0,.25.07l4.24-1.15a.26.26,0,0,0,.1-.44l-2.16-1.82a.25.25,0,0,0-.22-.05l-4,.89a.25.25,0,0,0-.14.42Z" transform="translate(-93.21 -65.12)" fill="#464a5f"/>
    <path id="Path_171" data-name="Path 171" d="M577.2,462.87l1.93,2.08a.23.23,0,0,0,.25.07l4.24-1.15a.26.26,0,0,0,.1-.44l-2.16-1.82a.23.23,0,0,0-.21-.05l-4,.89a.25.25,0,0,0-.15.42Z" transform="translate(-93.21 -65.12)" fill="#464a5f"/>
    <path id="Path_172" data-name="Path 172" d="M578.27,458.74l1.93,2.08a.23.23,0,0,0,.25.07l4.24-1.15a.26.26,0,0,0,.1-.44l-2.15-1.81a.29.29,0,0,0-.22-.06l-4,.89a.25.25,0,0,0-.15.42Z" transform="translate(-93.21 -65.12)" fill="#464a5f"/>
    <path id="Path_173" data-name="Path 173" d="M583.28,465.13l1.93,2.09a.23.23,0,0,0,.25.07l4.24-1.15a.25.25,0,0,0,.1-.44l-2.15-1.82a.25.25,0,0,0-.22-.05l-4,.89a.25.25,0,0,0-.15.41Z" transform="translate(-93.21 -65.12)" fill="#464a5f"/>
    <path id="Path_174" data-name="Path 174" d="M577.4,466.73l1.83,2a.33.33,0,0,0,.31.09l4.09-1.12a.31.31,0,0,0,.12-.54l-2-1.72a.29.29,0,0,0-.27-.07l-3.88.86a.31.31,0,0,0-.2.5Z" transform="translate(-93.21 -65.12)" fill="#464a5f"/>
    <path id="Path_175" data-name="Path 175" d="M595.84,454.52l2,2.2a.2.2,0,0,0,.19.06l4.4-1.2a.19.19,0,0,0,.07-.33l-2.27-1.91a.16.16,0,0,0-.16,0l-4.16.92a.18.18,0,0,0-.07.26Z" transform="translate(-93.21 -65.12)" fill="#464a5f"/>
    <path id="Path_176" data-name="Path 176" d="M595,458.48l1.93,2.09a.23.23,0,0,0,.25.07l4.24-1.15a.26.26,0,0,0,.1-.44l-2.16-1.82a.25.25,0,0,0-.22-.05l-4,.89a.24.24,0,0,0-.14.41Z" transform="translate(-93.21 -65.12)" fill="#464a5f"/>
    <path id="Path_177" data-name="Path 177" d="M589.27,460.06l1.93,2.09a.25.25,0,0,0,.25.07l4.24-1.16a.25.25,0,0,0,.1-.43l-2.16-1.82a.23.23,0,0,0-.21-.05l-4,.88a.26.26,0,0,0-.15.42Z" transform="translate(-93.21 -65.12)" fill="#464a5f"/>
    <path id="Path_178" data-name="Path 178" d="M566.07,457.78,568.2,460a.24.24,0,0,0,.24.07l4.57-1.05a.25.25,0,0,0,.11-.43l-2.39-2.26a.27.27,0,0,0-.24-.07l-4.3,1.07a.25.25,0,0,0-.12.45Z" transform="translate(-93.21 -65.12)" fill="#464a5f"/>
    <path id="Path_179" data-name="Path 179" d="M560,459.28l2,2.15a.29.29,0,0,0,.3.09l4.43-1a.31.31,0,0,0,.14-.53l-2.29-2.16a.28.28,0,0,0-.29-.08l-4.16,1a.31.31,0,0,0-.13.53Z" transform="translate(-93.21 -65.12)" fill="#464a5f"/>
    <path id="Path_180" data-name="Path 180" d="M553.43,464.34l1.51,2.43a.32.32,0,0,0,.34.14l5.11-1.14a.32.32,0,0,0,.19-.49l-1.68-2.35a.31.31,0,0,0-.32-.12l-5,1.06a.31.31,0,0,0-.15.47Z" transform="translate(-93.21 -65.12)" fill="#464a5f"/>
    <path id="Path_181" data-name="Path 181" d="M519.92,465.24l5.05-1.17a.31.31,0,0,1,.3.11l.89,1.17a.29.29,0,0,1-.17.46L520.76,467a.29.29,0,0,1-.32-.14l-.71-1.21a.3.3,0,0,1,.19-.41Z" transform="translate(-93.21 -65.12)" fill="#464a5f"/>
    <path id="Path_182" data-name="Path 182" d="M526.87,463.73l5-1.17a.31.31,0,0,1,.3.11l.89,1.17a.29.29,0,0,1-.17.46l-5.23,1.22a.29.29,0,0,1-.32-.14l-.71-1.22a.29.29,0,0,1,.24-.43Z" transform="translate(-93.21 -65.12)" fill="#464a5f"/>
    <path id="Path_183" data-name="Path 183" d="M533.58,462.29l5-1.17a.29.29,0,0,1,.3.11l.89,1.16a.3.3,0,0,1-.17.47l-5.23,1.22a.3.3,0,0,1-.32-.14l-.71-1.22a.29.29,0,0,1,.24-.43Z" transform="translate(-93.21 -65.12)" fill="#464a5f"/>
    <path id="Path_184" data-name="Path 184" d="M540.11,460.8l5-1.17a.29.29,0,0,1,.3.11l.89,1.17a.3.3,0,0,1-.17.46L541,462.59a.29.29,0,0,1-.32-.14l-.71-1.22a.29.29,0,0,1,.14-.43Z" transform="translate(-93.21 -65.12)" fill="#464a5f"/>
    <path id="Path_185" data-name="Path 185" d="M546.77,459.33l5-1.16a.33.33,0,0,1,.32.11l.86,1.14a.31.31,0,0,1-.18.49l-5.19,1.21a.32.32,0,0,1-.34-.15l-.69-1.18a.32.32,0,0,1,.22-.46Z" transform="translate(-93.21 -65.12)" fill="#464a5f"/>
    <path id="Path_186" data-name="Path 186" d="M553.23,458l5-1.16a.31.31,0,0,1,.32.12l.86,1.13a.31.31,0,0,1-.18.49l-5.19,1.21a.32.32,0,0,1-.34-.15l-.68-1.18a.31.31,0,0,1,.21-.46Z" transform="translate(-93.21 -65.12)" fill="#464a5f"/>
    <path id="Path_187" data-name="Path 187" d="M559.54,456.67l4.63-1.13a.32.32,0,0,1,.3.09l.9.95a.3.3,0,0,1-.15.51l-4.58,1.15a.29.29,0,0,1-.29-.08l-1-1a.31.31,0,0,1,.19-.49Z" transform="translate(-93.21 -65.12)" fill="#464a5f"/>
    <path id="Path_188" data-name="Path 188" d="M565.68,455.25l4.77-1.16a.27.27,0,0,1,.24.07l1,1a.25.25,0,0,1-.12.42l-4.71,1.18a.24.24,0,0,1-.24-.07l-1.05-1.07a.25.25,0,0,1,.11-.37Z" transform="translate(-93.21 -65.12)" fill="#464a5f"/>
    <path id="Path_189" data-name="Path 189" d="M571.8,453.81l4.77-1.16a.26.26,0,0,1,.24.07l1,1a.26.26,0,0,1-.12.42L573,455.37a.24.24,0,0,1-.24-.07l-1.05-1.07a.25.25,0,0,1,.09-.42Z" transform="translate(-93.21 -65.12)" fill="#464a5f"/>
    <path id="Path_190" data-name="Path 190" d="M577.92,452.56l4.77-1.16a.24.24,0,0,1,.24.07l1,1a.26.26,0,0,1-.12.42l-4.71,1.19a.29.29,0,0,1-.25-.07L577.8,453a.25.25,0,0,1,.12-.44Z" transform="translate(-93.21 -65.12)" fill="#464a5f"/>
    <path id="Path_191" data-name="Path 191" d="M583.72,451.17l4.92-1.2a.18.18,0,0,1,.18,0l1.09,1.16a.19.19,0,0,1-.09.31L585,452.71a.23.23,0,0,1-.18,0l-1.16-1.18a.19.19,0,0,1,.06-.36Z" transform="translate(-93.21 -65.12)" fill="#464a5f"/>
    <path id="Path_192" data-name="Path 192" d="M589.58,449.91l4.92-1.19a.18.18,0,0,1,.18,0l1.1,1.15a.18.18,0,0,1-.09.31l-4.86,1.22a.18.18,0,0,1-.18-.05l-1.16-1.17a.19.19,0,0,1,.09-.27Z" transform="translate(-93.21 -65.12)" fill="#464a5f"/>
    <path id="Path_193" data-name="Path 193" d="M595.43,448.57l4.54-1a.17.17,0,0,1,.19.06l.88,1.08a.19.19,0,0,1-.1.3l-4.27,1.13a.23.23,0,0,1-.18-.05l-1.16-1.18a.18.18,0,0,1,.1-.34Z" transform="translate(-93.21 -65.12)" fill="#464a5f"/>
    <path id="Path_194" data-name="Path 194" d="M601,447.29l4.55-1a.2.2,0,0,1,.19.06l.88,1.08a.19.19,0,0,1-.1.3l-4.27,1.13a.17.17,0,0,1-.18-.05l-1.16-1.17a.19.19,0,0,1,.09-.35Z" transform="translate(-93.21 -65.12)" fill="#464a5f"/>
    <path id="Path_195" data-name="Path 195" d="M523.46,471.26l1.68,2.39a.29.29,0,0,0,.31.12l8.75-2a.29.29,0,0,0,.16-.46l-1.85-2.44a.29.29,0,0,0-.31-.11l-8.56,2.1a.3.3,0,0,0-.18.4Z" transform="translate(-93.21 -65.12)" fill="#464a5f"/>
    <path id="Path_196" data-name="Path 196" d="M526.11,474.47l1.68,2.67a.29.29,0,0,0,.31.13l10.57-2.52a.29.29,0,0,0,.16-.47l-2.09-2.59a.31.31,0,0,0-.3-.1L526.29,474a.29.29,0,0,0-.18.47Z" transform="translate(-93.21 -65.12)" fill="#464a5f"/>
    <path id="Path_197" data-name="Path 197" d="M528.5,478l2,2.89a.29.29,0,0,0,.31.11l14-3.46a.29.29,0,0,0,.17-.46l-2.26-2.9a.29.29,0,0,0-.3-.1l-13.84,3.46a.3.3,0,0,0-.08.46Z" transform="translate(-93.21 -65.12)" fill="#464a5f"/>
    <path id="Path_198" data-name="Path 198" d="M560.55,474.84l2.56,3.08a.32.32,0,0,0,.32.1l30.8-7.68a.31.31,0,0,0,.14-.53l-3.14-3.12a.33.33,0,0,0-.3-.09l-30.22,7.73a.32.32,0,0,0-.16.51Z" transform="translate(-93.21 -65.12)" fill="#464a5f"/>
    <path id="Path_199" data-name="Path 199" d="M592.35,466.87l3,3a.26.26,0,0,0,.25.06l6.31-1.69a.25.25,0,0,0,.11-.42l-3.13-3.06a.24.24,0,0,0-.24-.07l-6.2,1.72a.25.25,0,0,0-.1.46Z" transform="translate(-93.21 -65.12)" fill="#464a5f"/>
    <path id="Path_200" data-name="Path 200" d="M607.6,465l1.37,1.45a.18.18,0,0,0,.18,0l4.68-1.25a.19.19,0,0,0,.08-.32l-1.67-1.56a.17.17,0,0,0-.18-.05l-4.38,1.37a.184.184,0,0,0-.08.36Z" transform="translate(-93.21 -65.12)" fill="#464a5f"/>
    <path id="Path_201" data-name="Path 201" d="M611.58,461.85l1.64,1.72a.17.17,0,0,0,.19,0l4.29-1.48a.19.19,0,0,0,.07-.32l-1.6-1.44a.2.2,0,0,0-.18-.05l-4.33,1.22a.19.19,0,0,0-.08.35Z" transform="translate(-93.21 -65.12)" fill="#464a5f"/>
    <path id="Path_202" data-name="Path 202" d="M614.74,464.82l-1.18-.95a.19.19,0,0,1,.06-.33l4.27-1.48a.2.2,0,0,1,.2,0l1.33,1.3a.18.18,0,0,1-.08.31l-4.44,1.15a.2.2,0,0,1-.16,0Z" transform="translate(-93.21 -65.12)" fill="#464a5f"/>
    <path id="Path_203" data-name="Path 203" d="M619.12,462.18c.37.36,1,1.06,1.27,1.3a.17.17,0,0,0,.18,0l4.45-1.21a.18.18,0,0,0,.08-.31l-1.58-1.43a.2.2,0,0,0-.18,0l-4.14,1.33a.19.19,0,0,0-.08.32Z" transform="translate(-93.21 -65.12)" fill="#464a5f"/>
    <path id="Path_204" data-name="Path 204" d="M606.63,459.37l2.39,2.3a.17.17,0,0,0,.17,0l11.49-3a.19.19,0,0,0,.07-.33l-2.79-2.3a.18.18,0,0,0-.17,0l-11.08,3a.19.19,0,0,0-.08.33Z" transform="translate(-93.21 -65.12)" fill="#464a5f"/>
    <path id="Path_205" data-name="Path 205" d="M605.85,455.82l2.46,2.19a.18.18,0,0,0,.17,0l8.64-2a.19.19,0,0,0,.08-.33l-2.83-2.36a.18.18,0,0,0-.17,0l-8.27,2.22a.19.19,0,0,0-.08.28Z" transform="translate(-93.21 -65.12)" fill="#464a5f"/>
    <path id="Path_206" data-name="Path 206" d="M606.64,452.05l2.33,2.08a.22.22,0,0,0,.17.05l4.43-1a.19.19,0,0,0,.09-.32l-2.76-2.38a.17.17,0,0,0-.18,0l-4,1.29a.18.18,0,0,0-.08.28Z" transform="translate(-93.21 -65.12)" fill="#464a5f"/>
    <path id="Path_207" data-name="Path 207" d="M600.57,450l2.26,2a.17.17,0,0,0,.17,0l7-1.66a.19.19,0,0,0,.08-.33l-2.69-2.25a.17.17,0,0,0-.17,0l-6.6,1.86a.192.192,0,0,0-.05.38Z" transform="translate(-93.21 -65.12)" fill="#464a5f"/>
    <path id="Path_208" data-name="Path 208" d="M539.6,341.18a198.786,198.786,0,0,0-12.13,16,50.624,50.624,0,0,1-4.91,6.55c-2.59,2.73-5.83,4.78-8.48,7.46-3.07,3.11-5.25,7-7.39,10.79a79.071,79.071,0,0,0-4,7.83,39.59,39.59,0,0,0-1.75,25.37c.81,3,2.43,6.38,5.49,7.09,2.4.56,4.8-.72,6.9-2,2.26-1.37,4.58-2.87,5.91-5.16a16.649,16.649,0,0,0,1.72-6.31l2.63-19.25a22.226,22.226,0,0,1,1.39-6c1.51-3.44,4.65-5.89,7.94-7.7s6.84-3.16,10-5.22c2.94-1.92,5.47-4.42,8.41-6.34,3.61-2.37,7.8-3.84,11.09-6.63s5.52-7.63,3.5-11.44a13.35,13.35,0,0,0-3.61-3.81l-6.43-5.18c-1.37-1.1-4.2-4.43-5.93-4.65s-4.35,2.4-5.51,3.43a48.672,48.672,0,0,0-4.84,5.17Z" transform="translate(-93.21 -65.12)" fill="#fbbebe"/>
    <path id="Path_209" data-name="Path 209" d="M517.65,311.92a21.2,21.2,0,0,1,4,1c1.31.53,2.51,1.33,3.83,1.83a45.9,45.9,0,0,0,5.21,1.24,7,7,0,0,1,4.41,2.8,13.3,13.3,0,0,0-7.35,4.75,22.227,22.227,0,0,0-3.07,6.07,68.248,68.248,0,0,0-4,20.08c-.06,1.2,0,2.58.9,3.37-4.45-3.61-10.74-3.5-16.46-3.24a4.1,4.1,0,0,1-1.6-.13,3.58,3.58,0,0,1-1.41-1.16,14,14,0,0,1-3-6.72c-.54-3.53.28-7.11,1-10.61a54.672,54.672,0,0,0,1.3-10.27c.05-3.52-1.06-6.36-1.64-9.71-.71-4.05,3.81-2.06,6.23-1.59Z" transform="translate(-93.21 -65.12)" fill="#f9a826"/>
  </g>
</svg>
